<svg xmlns="http://www.w3.org/2000/svg" width="98.55" height="117.428" viewBox="0 0 98.55 117.428">
  <g id="Grupo_1128193" data-name="Grupo 1128193" transform="translate(-690.939 -5071.866)">
    <path id="Trazado_917868" data-name="Trazado 917868" d="M0,0H98.55V26H0Z" transform="translate(690.939 5163.294)" fill="#9167f1"/>
    <path id="Trazado_917869" data-name="Trazado 917869" d="M23.7,13.061H18.922V18h-2.49V5.914H24.3V7.931H18.922v3.121H23.7ZM30.51,18a2.664,2.664,0,0,1-.241-.805A2.9,2.9,0,0,1,28,18.166a3.189,3.189,0,0,1-2.187-.764,2.456,2.456,0,0,1-.867-1.926,2.538,2.538,0,0,1,1.058-2.191,5.222,5.222,0,0,1,3.059-.772h1.1V12a1.48,1.48,0,0,0-.32-1,1.257,1.257,0,0,0-1.009-.374,1.429,1.429,0,0,0-.95.291.987.987,0,0,0-.344.8h-2.4a2.41,2.41,0,0,1,.481-1.444A3.182,3.182,0,0,1,26.99,9.23a4.961,4.961,0,0,1,1.976-.378,3.92,3.92,0,0,1,2.635.834,2.918,2.918,0,0,1,.975,2.345v3.893a4.294,4.294,0,0,0,.357,1.934V18Zm-1.984-1.668a2.066,2.066,0,0,0,.979-.237,1.554,1.554,0,0,0,.664-.635V13.916h-.9q-1.8,0-1.917,1.245l-.008.141a.96.96,0,0,0,.315.739A1.225,1.225,0,0,0,28.526,16.332Zm10.758-.813a.773.773,0,0,0-.436-.693,4.95,4.95,0,0,0-1.4-.452q-3.2-.672-3.2-2.723a2.468,2.468,0,0,1,.992-2,4,4,0,0,1,2.594-.8,4.307,4.307,0,0,1,2.735.805,2.538,2.538,0,0,1,1.025,2.092h-2.4a1.161,1.161,0,0,0-.332-.851,1.405,1.405,0,0,0-1.038-.336,1.436,1.436,0,0,0-.938.274.865.865,0,0,0-.332.7.739.739,0,0,0,.378.643A3.885,3.885,0,0,0,38.2,12.6a10.407,10.407,0,0,1,1.511.4,2.482,2.482,0,0,1,1.9,2.416,2.343,2.343,0,0,1-1.054,1.988,4.548,4.548,0,0,1-2.723.76,4.75,4.75,0,0,1-2-.4,3.363,3.363,0,0,1-1.374-1.1,2.565,2.565,0,0,1-.5-1.515h2.274a1.252,1.252,0,0,0,.473.979,1.877,1.877,0,0,0,1.179.34,1.737,1.737,0,0,0,1.042-.261A.814.814,0,0,0,39.283,15.518Zm8.01,2.648a4.409,4.409,0,0,1-3.217-1.212,4.308,4.308,0,0,1-1.241-3.229v-.232a5.426,5.426,0,0,1,.523-2.42,3.838,3.838,0,0,1,1.482-1.644,4.159,4.159,0,0,1,2.187-.577,3.727,3.727,0,0,1,2.9,1.162,4.722,4.722,0,0,1,1.058,3.3v.979H45.268a2.229,2.229,0,0,0,.7,1.411,2.12,2.12,0,0,0,1.482.531,2.589,2.589,0,0,0,2.167-1l1.179,1.32a3.6,3.6,0,0,1-1.461,1.191A4.793,4.793,0,0,1,47.294,18.166Zm-.274-7.379a1.5,1.5,0,0,0-1.158.484,2.5,2.5,0,0,0-.569,1.384H48.63v-.192a1.786,1.786,0,0,0-.432-1.238A1.547,1.547,0,0,0,47.02,10.787ZM69,18H60.716V16.356l3.91-4.167a9.645,9.645,0,0,0,1.191-1.536A2.467,2.467,0,0,0,66.2,9.409,1.846,1.846,0,0,0,65.8,8.143a1.468,1.468,0,0,0-1.162-.461,1.584,1.584,0,0,0-1.282.56,2.219,2.219,0,0,0-.469,1.473H60.475A3.962,3.962,0,0,1,61,7.7a3.715,3.715,0,0,1,1.49-1.432,4.529,4.529,0,0,1,2.183-.519,4.288,4.288,0,0,1,2.9.9A3.172,3.172,0,0,1,68.61,9.176,4.064,4.064,0,0,1,68.145,11a10.148,10.148,0,0,1-1.594,2.167l-2.748,2.9H69Z" transform="translate(697.939 5166.338)" fill="#fff"/>
    <path id="Trazado_917797" data-name="Trazado 917797" d="M1239.7,447.3h-61.6a1.062,1.062,0,0,1-1.062-1.062v-4.248a1.062,1.062,0,0,1,1.062-1.062h61.6a1.062,1.062,0,0,1,1.062,1.062v4.248a1.062,1.062,0,0,1-1.062,1.062m-60.536-2.124h59.474v-2.124h-59.474Z" transform="translate(-469.104 4688.289)" fill="#9167f1"/>
    <path id="Trazado_917798" data-name="Trazado 917798" d="M1386.6,258.416h-8.5a1.062,1.062,0,0,1-1.062-1.062V233.989a1.062,1.062,0,0,1,1.062-1.062h8.5a1.062,1.062,0,0,1,1.062,1.062v23.365a1.062,1.062,0,0,1-1.062,1.062m-7.434-2.124h6.372V235.051h-6.372Z" transform="translate(-642.553 4868.676)" fill="#9167f1"/>
    <path id="Trazado_917799" data-name="Trazado 917799" d="M1194.6,313.92h-8.5a1.062,1.062,0,0,1-1.062-1.062V297.989a1.062,1.062,0,0,1,1.062-1.062h8.5a1.062,1.062,0,0,1,1.062,1.062v14.868a1.062,1.062,0,0,1-1.062,1.062m-7.434-2.124h6.372V299.051h-6.372Z" transform="translate(-476.042 4813.172)" fill="#9167f1"/>
    <path id="Trazado_917800" data-name="Trazado 917800" d="M1290.6,286.168h-8.5a1.062,1.062,0,0,1-1.062-1.062V265.989a1.062,1.062,0,0,1,1.062-1.062h8.5a1.062,1.062,0,0,1,1.062,1.062v19.117a1.062,1.062,0,0,1-1.062,1.062m-7.434-2.124h6.372V267.051h-6.372Z" transform="translate(-559.297 4840.924)" fill="#9167f1"/>
    <path id="Trazado_917801" data-name="Trazado 917801" d="M1208.9,34.416a1.062,1.062,0,0,1-.884-.473l-3.933-5.9h-21.735a5.316,5.316,0,0,1-5.31-5.31v-8.5a5.316,5.316,0,0,1,5.31-5.31h53.1a5.316,5.316,0,0,1,5.31,5.31v8.5a5.316,5.316,0,0,1-5.31,5.31H1213.72l-3.929,5.9a1.062,1.062,0,0,1-.887.473m-26.551-23.365a3.186,3.186,0,0,0-3.186,3.186v8.5a3.186,3.186,0,0,0,3.186,3.186h22.3a1.062,1.062,0,0,1,.884.473l3.365,5.05,3.365-5.047a1.061,1.061,0,0,1,.883-.476h22.3a3.186,3.186,0,0,0,3.186-3.186v-8.5a3.186,3.186,0,0,0-3.186-3.186Z" transform="translate(-469.104 5062.939)" fill="#9167f1"/>
    <path id="Trazado_917802" data-name="Trazado 917802" d="M1374,44.616a1.062,1.062,0,0,1-1.046-1.242l.5-2.925-2.124-2.072a1.062,1.062,0,0,1,.586-1.812l2.938-.425,1.31-2.663a1.106,1.106,0,0,1,1.9,0l1.315,2.661,2.935.425a1.062,1.062,0,0,1,.589,1.811l-2.124,2.073.5,2.925a1.062,1.062,0,0,1-1.541,1.119l-2.624-1.38-2.627,1.381a1.063,1.063,0,0,1-.494.122m3.121-3.765a1.053,1.053,0,0,1,.494.122l1.216.637-.23-1.349a1.062,1.062,0,0,1,.3-.939l.984-.956-1.359-.2a1.062,1.062,0,0,1-.8-.581l-.609-1.242-.608,1.233a1.062,1.062,0,0,1-.8.581l-1.36.2.984.956a1.062,1.062,0,0,1,.3.94l-.233,1.355,1.217-.637a1.053,1.053,0,0,1,.494-.121" transform="translate(-637.318 5042.118)" fill="#9167f1"/>
    <path id="Trazado_917803" data-name="Trazado 917803" d="M1274.319,44.346a1.063,1.063,0,0,1-.494-.122l-2.628-1.381-2.626,1.381a1.062,1.062,0,0,1-1.541-1.119l.5-2.925-2.124-2.073A1.062,1.062,0,0,1,1266,36.3l2.937-.425,1.314-2.661a1.068,1.068,0,0,1,1.912,0l1.314,2.66,2.938.425a1.062,1.062,0,0,1,.588,1.812l-2.124,2.072.5,2.925a1.062,1.062,0,0,1-1.057,1.236m-5.89-6.258.985.956a1.062,1.062,0,0,1,.3.939l-.232,1.355,1.216-.637a1.062,1.062,0,0,1,.989,0l1.216.637-.233-1.347a1.063,1.063,0,0,1,.306-.94l.984-.956-1.36-.2a1.062,1.062,0,0,1-.8-.581l-.609-1.233-.608,1.233a1.063,1.063,0,0,1-.8.581Z" transform="translate(-545.464 5042.389)" fill="#9167f1"/>
    <path id="Trazado_917804" data-name="Trazado 917804" d="M1486.2,44.311a1.06,1.06,0,0,1-.495-.122l-2.626-1.381-2.627,1.381a1.062,1.062,0,0,1-1.541-1.119l.5-2.925-2.124-2.072a1.062,1.062,0,0,1,.59-1.812l2.937-.425,1.315-2.661a1.068,1.068,0,0,1,1.912,0l1.313,2.66,2.938.425a1.062,1.062,0,0,1,.588,1.812l-2.124,2.072.5,2.925a1.062,1.062,0,0,1-1.058,1.242m-5.889-6.258.983.956a1.062,1.062,0,0,1,.306.94l-.232,1.355,1.217-.637a1.062,1.062,0,0,1,.989,0l1.215.637-.232-1.348a1.063,1.063,0,0,1,.3-.94l.984-.956-1.36-.2a1.062,1.062,0,0,1-.8-.581l-.607-1.232-.609,1.232a1.061,1.061,0,0,1-.8.581Z" transform="translate(-729.213 5042.423)" fill="#9167f1"/>
  </g>
</svg>
