<svg xmlns="http://www.w3.org/2000/svg" width="63.722" height="63.722" viewBox="0 0 63.722 63.722">
  <g id="Grupo_1128160" data-name="Grupo 1128160" transform="translate(-623.5 -6106.135)">
    <path id="Trazado_917778" data-name="Trazado 917778" d="M62.66,447.3H1.062A1.062,1.062,0,0,1,0,446.237v-4.248a1.062,1.062,0,0,1,1.062-1.062h61.6a1.062,1.062,0,0,1,1.062,1.062v4.248A1.062,1.062,0,0,1,62.66,447.3M2.124,445.175H61.6v-2.124H2.124Z" transform="translate(623.5 5722.558)" fill="#9167f1"/>
    <path id="Trazado_917779" data-name="Trazado 917779" d="M209.558,258.416h-8.5A1.062,1.062,0,0,1,200,257.354V233.989a1.062,1.062,0,0,1,1.062-1.062h8.5a1.062,1.062,0,0,1,1.062,1.062v23.365a1.062,1.062,0,0,1-1.062,1.062m-7.434-2.124H208.5V235.051h-6.372Z" transform="translate(450.051 5902.945)" fill="#9167f1"/>
    <path id="Trazado_917780" data-name="Trazado 917780" d="M305.558,230.664h-8.5A1.062,1.062,0,0,1,296,229.6V201.989a1.062,1.062,0,0,1,1.062-1.062h8.5a1.062,1.062,0,0,1,1.062,1.062V229.6a1.062,1.062,0,0,1-1.062,1.062m-7.434-2.124H304.5V203.051h-6.372Z" transform="translate(366.795 5930.697)" fill="#9167f1"/>
    <path id="Trazado_917781" data-name="Trazado 917781" d="M401.558,202.912h-8.5A1.062,1.062,0,0,1,392,201.85V169.989a1.062,1.062,0,0,1,1.062-1.062h8.5a1.062,1.062,0,0,1,1.062,1.062V201.85a1.062,1.062,0,0,1-1.062,1.062m-7.434-2.124H400.5V171.051h-6.372Z" transform="translate(283.54 5958.449)" fill="#9167f1"/>
    <path id="Trazado_917782" data-name="Trazado 917782" d="M17.558,313.92h-8.5A1.062,1.062,0,0,1,8,312.858V297.989a1.062,1.062,0,0,1,1.062-1.062h8.5a1.062,1.062,0,0,1,1.062,1.062v14.868a1.062,1.062,0,0,1-1.062,1.062M10.124,311.8H16.5V299.051H10.124Z" transform="translate(616.562 5847.441)" fill="#9167f1"/>
    <path id="Trazado_917783" data-name="Trazado 917783" d="M113.558,286.168h-8.5A1.062,1.062,0,0,1,104,285.106V265.989a1.062,1.062,0,0,1,1.062-1.062h8.5a1.062,1.062,0,0,1,1.062,1.062v19.117a1.062,1.062,0,0,1-1.062,1.062m-7.434-2.124H112.5V267.051h-6.372Z" transform="translate(533.307 5875.193)" fill="#9167f1"/>
    <path id="Trazado_917784" data-name="Trazado 917784" d="M31.861,34.416a1.062,1.062,0,0,1-.884-.473l-3.933-5.9H5.31A5.317,5.317,0,0,1,0,22.733v-8.5a5.317,5.317,0,0,1,5.31-5.31h53.1a5.317,5.317,0,0,1,5.31,5.31v8.5a5.317,5.317,0,0,1-5.31,5.31H36.677l-3.93,5.9a1.062,1.062,0,0,1-.887.473M5.31,11.051a3.186,3.186,0,0,0-3.186,3.186v8.5A3.186,3.186,0,0,0,5.31,25.92h22.3a1.062,1.062,0,0,1,.884.473l3.365,5.05L35.226,26.4a1.062,1.062,0,0,1,.884-.476h22.3A3.186,3.186,0,0,0,61.6,22.733v-8.5a3.186,3.186,0,0,0-3.186-3.186Z" transform="translate(623.5 6097.208)" fill="#9167f1"/>
    <path id="Trazado_917785" data-name="Trazado 917785" d="M196.954,44.616a1.062,1.062,0,0,1-1.046-1.242l.5-2.925-2.124-2.072a1.062,1.062,0,0,1,.586-1.812l2.938-.425,1.311-2.663a1.106,1.106,0,0,1,1.9,0l1.315,2.661,2.935.425a1.062,1.062,0,0,1,.589,1.811l-2.124,2.073.5,2.925a1.062,1.062,0,0,1-1.541,1.119l-2.624-1.38-2.627,1.381a1.063,1.063,0,0,1-.494.122m3.121-3.765a1.053,1.053,0,0,1,.494.122l1.216.637-.23-1.349a1.062,1.062,0,0,1,.3-.939l.983-.956-1.359-.2a1.062,1.062,0,0,1-.8-.581l-.609-1.242-.607,1.233a1.062,1.062,0,0,1-.8.581l-1.36.2.985.956a1.062,1.062,0,0,1,.3.94l-.233,1.355,1.217-.637a1.052,1.052,0,0,1,.494-.121" transform="translate(455.286 6076.388)" fill="#9167f1"/>
    <path id="Trazado_917786" data-name="Trazado 917786" d="M97.275,44.346a1.063,1.063,0,0,1-.494-.122l-2.627-1.381-2.626,1.381A1.062,1.062,0,0,1,89.987,43.1l.5-2.925-2.124-2.073a1.062,1.062,0,0,1,.588-1.805l2.938-.425L93.2,33.215a1.068,1.068,0,0,1,1.912,0l1.314,2.66,2.938.425a1.062,1.062,0,0,1,.588,1.812l-2.124,2.072.5,2.925a1.062,1.062,0,0,1-1.057,1.236m-5.89-6.258.986.956a1.062,1.062,0,0,1,.3.939l-.232,1.355L93.66,40.7a1.062,1.062,0,0,1,.989,0l1.216.637-.233-1.347a1.062,1.062,0,0,1,.306-.94l.985-.956-1.36-.2a1.062,1.062,0,0,1-.8-.581l-.609-1.233-.609,1.233a1.062,1.062,0,0,1-.8.581Z" transform="translate(547.141 6076.658)" fill="#9167f1"/>
    <path id="Trazado_917787" data-name="Trazado 917787" d="M309.159,44.311a1.061,1.061,0,0,1-.495-.122l-2.626-1.381-2.627,1.381a1.062,1.062,0,0,1-1.541-1.119l.5-2.925-2.124-2.072a1.062,1.062,0,0,1,.589-1.812l2.937-.425,1.315-2.661a1.068,1.068,0,0,1,1.912,0l1.313,2.66,2.938.425a1.062,1.062,0,0,1,.588,1.812l-2.124,2.072.5,2.925a1.062,1.062,0,0,1-1.058,1.242m-5.889-6.258.983.956a1.062,1.062,0,0,1,.306.94l-.233,1.355,1.217-.637a1.062,1.062,0,0,1,.989,0l1.215.637-.232-1.348a1.062,1.062,0,0,1,.3-.94l.985-.956-1.361-.2a1.062,1.062,0,0,1-.8-.581l-.608-1.232-.609,1.232a1.062,1.062,0,0,1-.8.581Z" transform="translate(363.39 6076.693)" fill="#9167f1"/>
  </g>
</svg>
