<svg xmlns="http://www.w3.org/2000/svg" width="63.722" height="63.722" viewBox="0 0 63.722 63.722">
  <g id="Grupo_1128157" data-name="Grupo 1128157" transform="translate(-702.887 -6106.135)">
    <path id="Trazado_917805" data-name="Trazado 917805" d="M660.66,447.3h-61.6A1.062,1.062,0,0,1,598,446.237v-4.248a1.062,1.062,0,0,1,1.062-1.062h61.6a1.062,1.062,0,0,1,1.062,1.062v4.248a1.062,1.062,0,0,1-1.062,1.062m-60.536-2.124H659.6v-2.124H600.124Z" transform="translate(104.887 5722.558)" fill="#9167f1"/>
    <path id="Trazado_917806" data-name="Trazado 917806" d="M615.558,313.92h-8.5A1.062,1.062,0,0,1,606,312.858V297.989a1.062,1.062,0,0,1,1.062-1.062h8.5a1.062,1.062,0,0,1,1.062,1.062v14.868a1.062,1.062,0,0,1-1.062,1.062m-7.434-2.124H614.5V299.051h-6.372Z" transform="translate(97.949 5847.441)" fill="#9167f1"/>
    <path id="Trazado_917807" data-name="Trazado 917807" d="M711.558,286.168h-8.5A1.062,1.062,0,0,1,702,285.106V265.989a1.062,1.062,0,0,1,1.062-1.062h8.5a1.062,1.062,0,0,1,1.062,1.062v19.117a1.062,1.062,0,0,1-1.062,1.062m-7.434-2.124H710.5V267.051h-6.372Z" transform="translate(14.693 5875.193)" fill="#9167f1"/>
    <path id="Trazado_917808" data-name="Trazado 917808" d="M629.861,34.416a1.062,1.062,0,0,1-.884-.473l-3.933-5.9H603.31a5.316,5.316,0,0,1-5.31-5.31v-8.5a5.316,5.316,0,0,1,5.31-5.31h53.1a5.317,5.317,0,0,1,5.31,5.31v8.5a5.317,5.317,0,0,1-5.31,5.31H634.677l-3.93,5.9a1.062,1.062,0,0,1-.887.473M603.31,11.051a3.186,3.186,0,0,0-3.186,3.186v8.5a3.186,3.186,0,0,0,3.186,3.186h22.3a1.062,1.062,0,0,1,.884.473l3.365,5.05,3.365-5.047a1.062,1.062,0,0,1,.884-.476h22.3a3.186,3.186,0,0,0,3.186-3.186v-8.5a3.186,3.186,0,0,0-3.186-3.186Z" transform="translate(104.887 6097.208)" fill="#9167f1"/>
    <path id="Trazado_917809" data-name="Trazado 917809" d="M794.954,44.616a1.062,1.062,0,0,1-1.046-1.242l.5-2.925-2.124-2.072a1.062,1.062,0,0,1,.586-1.812l2.938-.425,1.311-2.663a1.106,1.106,0,0,1,1.9,0l1.315,2.661,2.935.425a1.062,1.062,0,0,1,.589,1.811l-2.124,2.073.5,2.925a1.062,1.062,0,0,1-1.541,1.119l-2.624-1.38-2.627,1.381a1.064,1.064,0,0,1-.494.122m3.121-3.765a1.053,1.053,0,0,1,.494.122l1.216.637-.23-1.349a1.062,1.062,0,0,1,.3-.939l.983-.956-1.359-.2a1.062,1.062,0,0,1-.8-.581l-.609-1.242-.607,1.233a1.062,1.062,0,0,1-.8.581l-1.36.2.984.956a1.062,1.062,0,0,1,.3.94l-.233,1.355,1.217-.637a1.053,1.053,0,0,1,.494-.121" transform="translate(-63.327 6076.388)" fill="#9167f1"/>
    <path id="Trazado_917810" data-name="Trazado 917810" d="M695.275,44.346a1.064,1.064,0,0,1-.494-.122l-2.627-1.381-2.626,1.381a1.062,1.062,0,0,1-1.541-1.119l.5-2.925-2.124-2.073a1.062,1.062,0,0,1,.588-1.805l2.938-.425,1.314-2.661a1.068,1.068,0,0,1,1.912,0l1.314,2.66,2.938.425a1.062,1.062,0,0,1,.588,1.812l-2.124,2.072.5,2.925a1.062,1.062,0,0,1-1.057,1.236m-5.89-6.258.986.956a1.062,1.062,0,0,1,.3.939l-.232,1.355,1.216-.637a1.062,1.062,0,0,1,.989,0l1.216.637-.233-1.347a1.062,1.062,0,0,1,.306-.94l.984-.956-1.36-.2a1.062,1.062,0,0,1-.8-.581l-.609-1.233-.609,1.233a1.062,1.062,0,0,1-.8.581Z" transform="translate(28.527 6076.658)" fill="#9167f1"/>
    <path id="Trazado_917811" data-name="Trazado 917811" d="M907.159,44.311a1.061,1.061,0,0,1-.495-.122l-2.626-1.381-2.627,1.381a1.062,1.062,0,0,1-1.541-1.119l.5-2.925-2.124-2.072a1.062,1.062,0,0,1,.589-1.812l2.937-.425,1.315-2.661a1.068,1.068,0,0,1,1.912,0l1.313,2.66,2.938.425a1.062,1.062,0,0,1,.588,1.812l-2.124,2.072.5,2.925a1.062,1.062,0,0,1-1.058,1.242m-5.889-6.258.983.956a1.062,1.062,0,0,1,.306.94l-.233,1.355,1.217-.637a1.062,1.062,0,0,1,.989,0l1.215.637-.232-1.348a1.062,1.062,0,0,1,.3-.94l.984-.956-1.36-.2a1.062,1.062,0,0,1-.8-.581l-.607-1.232-.609,1.232a1.062,1.062,0,0,1-.8.581Z" transform="translate(-155.223 6076.693)" fill="#9167f1"/>
  </g>
</svg>
