<svg xmlns="http://www.w3.org/2000/svg" width="98.55" height="110.71" viewBox="0 0 98.55 110.71">
  <g id="Grupo_1128195" data-name="Grupo 1128195" transform="translate(-6961.889 6598.084)">
    <path id="Trazado_917872" data-name="Trazado 917872" d="M0,0H98.55V26H0Z" transform="translate(6961.889 -6513.374)" fill="#9167f1"/>
    <path id="Trazado_917873" data-name="Trazado 917873" d="M23.7,13.061H18.922V18h-2.49V5.914H24.3V7.931H18.922v3.121H23.7ZM30.51,18a2.664,2.664,0,0,1-.241-.805A2.9,2.9,0,0,1,28,18.166a3.189,3.189,0,0,1-2.187-.764,2.456,2.456,0,0,1-.867-1.926,2.538,2.538,0,0,1,1.058-2.191,5.222,5.222,0,0,1,3.059-.772h1.1V12a1.48,1.48,0,0,0-.32-1,1.257,1.257,0,0,0-1.009-.374,1.429,1.429,0,0,0-.95.291.987.987,0,0,0-.344.8h-2.4a2.41,2.41,0,0,1,.481-1.444A3.182,3.182,0,0,1,26.99,9.23a4.961,4.961,0,0,1,1.976-.378,3.92,3.92,0,0,1,2.635.834,2.918,2.918,0,0,1,.975,2.345v3.893a4.294,4.294,0,0,0,.357,1.934V18Zm-1.984-1.668a2.066,2.066,0,0,0,.979-.237,1.554,1.554,0,0,0,.664-.635V13.916h-.9q-1.8,0-1.917,1.245l-.008.141a.96.96,0,0,0,.315.739A1.225,1.225,0,0,0,28.526,16.332Zm10.758-.813a.773.773,0,0,0-.436-.693,4.95,4.95,0,0,0-1.4-.452q-3.2-.672-3.2-2.723a2.468,2.468,0,0,1,.992-2,4,4,0,0,1,2.594-.8,4.307,4.307,0,0,1,2.735.805,2.538,2.538,0,0,1,1.025,2.092h-2.4a1.161,1.161,0,0,0-.332-.851,1.405,1.405,0,0,0-1.038-.336,1.436,1.436,0,0,0-.938.274.865.865,0,0,0-.332.7.739.739,0,0,0,.378.643A3.885,3.885,0,0,0,38.2,12.6a10.407,10.407,0,0,1,1.511.4,2.482,2.482,0,0,1,1.9,2.416,2.343,2.343,0,0,1-1.054,1.988,4.548,4.548,0,0,1-2.723.76,4.75,4.75,0,0,1-2-.4,3.363,3.363,0,0,1-1.374-1.1,2.565,2.565,0,0,1-.5-1.515h2.274a1.252,1.252,0,0,0,.473.979,1.877,1.877,0,0,0,1.179.34,1.737,1.737,0,0,0,1.042-.261A.814.814,0,0,0,39.283,15.518Zm8.01,2.648a4.409,4.409,0,0,1-3.217-1.212,4.308,4.308,0,0,1-1.241-3.229v-.232a5.426,5.426,0,0,1,.523-2.42,3.838,3.838,0,0,1,1.482-1.644,4.159,4.159,0,0,1,2.187-.577,3.727,3.727,0,0,1,2.9,1.162,4.722,4.722,0,0,1,1.058,3.3v.979H45.268a2.229,2.229,0,0,0,.7,1.411,2.12,2.12,0,0,0,1.482.531,2.589,2.589,0,0,0,2.167-1l1.179,1.32a3.6,3.6,0,0,1-1.461,1.191A4.793,4.793,0,0,1,47.294,18.166Zm-.274-7.379a1.5,1.5,0,0,0-1.158.484,2.5,2.5,0,0,0-.569,1.384H48.63v-.192a1.786,1.786,0,0,0-.432-1.238A1.547,1.547,0,0,0,47.02,10.787Zm20.793,2.665h1.37v1.934h-1.37V18h-2.4V15.385H60.459l-.108-1.511,5.039-7.96h2.424Zm-5.072,0h2.673V9.185l-.158.274Z" transform="translate(6968.889 -6510.33)" fill="#fff"/>
    <path id="Trazado_917778" data-name="Trazado 917778" d="M62.66,447.3H1.062A1.062,1.062,0,0,1,0,446.237v-4.248a1.062,1.062,0,0,1,1.062-1.062h61.6a1.062,1.062,0,0,1,1.062,1.062v4.248A1.062,1.062,0,0,1,62.66,447.3M2.124,445.175H61.6v-2.124H2.124Z" transform="translate(6976.389 -6981.662)" fill="#9167f1"/>
    <path id="Trazado_917779" data-name="Trazado 917779" d="M209.558,258.416h-8.5A1.062,1.062,0,0,1,200,257.354V233.989a1.062,1.062,0,0,1,1.062-1.062h8.5a1.062,1.062,0,0,1,1.062,1.062v23.365a1.062,1.062,0,0,1-1.062,1.062m-7.434-2.124H208.5V235.051h-6.372Z" transform="translate(6802.939 -6801.274)" fill="#9167f1"/>
    <path id="Trazado_917780" data-name="Trazado 917780" d="M305.558,230.664h-8.5A1.062,1.062,0,0,1,296,229.6V201.989a1.062,1.062,0,0,1,1.062-1.062h8.5a1.062,1.062,0,0,1,1.062,1.062V229.6a1.062,1.062,0,0,1-1.062,1.062m-7.434-2.124H304.5V203.051h-6.372Z" transform="translate(6719.684 -6773.522)" fill="#9167f1"/>
    <path id="Trazado_917781" data-name="Trazado 917781" d="M401.558,202.912h-8.5A1.062,1.062,0,0,1,392,201.85V169.989a1.062,1.062,0,0,1,1.062-1.062h8.5a1.062,1.062,0,0,1,1.062,1.062V201.85a1.062,1.062,0,0,1-1.062,1.062m-7.434-2.124H400.5V171.051h-6.372Z" transform="translate(6636.428 -6745.771)" fill="#9167f1"/>
    <path id="Trazado_917782" data-name="Trazado 917782" d="M17.558,313.92h-8.5A1.062,1.062,0,0,1,8,312.858V297.989a1.062,1.062,0,0,1,1.062-1.062h8.5a1.062,1.062,0,0,1,1.062,1.062v14.868a1.062,1.062,0,0,1-1.062,1.062M10.124,311.8H16.5V299.051H10.124Z" transform="translate(6969.451 -6856.778)" fill="#9167f1"/>
    <path id="Trazado_917783" data-name="Trazado 917783" d="M113.558,286.168h-8.5A1.062,1.062,0,0,1,104,285.106V265.989a1.062,1.062,0,0,1,1.062-1.062h8.5a1.062,1.062,0,0,1,1.062,1.062v19.117a1.062,1.062,0,0,1-1.062,1.062m-7.434-2.124H112.5V267.051h-6.372Z" transform="translate(6886.195 -6829.026)" fill="#9167f1"/>
    <path id="Trazado_917784" data-name="Trazado 917784" d="M31.861,34.416a1.062,1.062,0,0,1-.884-.473l-3.933-5.9H5.31A5.317,5.317,0,0,1,0,22.733v-8.5a5.317,5.317,0,0,1,5.31-5.31h53.1a5.317,5.317,0,0,1,5.31,5.31v8.5a5.317,5.317,0,0,1-5.31,5.31H36.677l-3.93,5.9a1.062,1.062,0,0,1-.887.473M5.31,11.051a3.186,3.186,0,0,0-3.186,3.186v8.5A3.186,3.186,0,0,0,5.31,25.92h22.3a1.062,1.062,0,0,1,.884.473l3.365,5.05L35.226,26.4a1.062,1.062,0,0,1,.884-.476h22.3A3.186,3.186,0,0,0,61.6,22.733v-8.5a3.186,3.186,0,0,0-3.186-3.186Z" transform="translate(6976.389 -6607.011)" fill="#9167f1"/>
    <path id="Trazado_917785" data-name="Trazado 917785" d="M196.954,44.616a1.062,1.062,0,0,1-1.046-1.242l.5-2.925-2.124-2.072a1.062,1.062,0,0,1,.586-1.812l2.938-.425,1.311-2.663a1.106,1.106,0,0,1,1.9,0l1.315,2.661,2.935.425a1.062,1.062,0,0,1,.589,1.811l-2.124,2.073.5,2.925a1.062,1.062,0,0,1-1.541,1.119l-2.624-1.38-2.627,1.381a1.063,1.063,0,0,1-.494.122m3.121-3.765a1.053,1.053,0,0,1,.494.122l1.216.637-.23-1.349a1.062,1.062,0,0,1,.3-.939l.983-.956-1.359-.2a1.062,1.062,0,0,1-.8-.581l-.609-1.242-.607,1.233a1.062,1.062,0,0,1-.8.581l-1.36.2.985.956a1.062,1.062,0,0,1,.3.94l-.233,1.355,1.217-.637a1.052,1.052,0,0,1,.494-.121" transform="translate(6808.174 -6627.832)" fill="#9167f1"/>
    <path id="Trazado_917786" data-name="Trazado 917786" d="M97.275,44.346a1.063,1.063,0,0,1-.494-.122l-2.627-1.381-2.626,1.381A1.062,1.062,0,0,1,89.987,43.1l.5-2.925-2.124-2.073a1.062,1.062,0,0,1,.588-1.805l2.938-.425L93.2,33.215a1.068,1.068,0,0,1,1.912,0l1.314,2.66,2.938.425a1.062,1.062,0,0,1,.588,1.812l-2.124,2.072.5,2.925a1.062,1.062,0,0,1-1.057,1.236m-5.89-6.258.986.956a1.062,1.062,0,0,1,.3.939l-.232,1.355L93.66,40.7a1.062,1.062,0,0,1,.989,0l1.216.637-.233-1.347a1.062,1.062,0,0,1,.306-.94l.985-.956-1.36-.2a1.062,1.062,0,0,1-.8-.581l-.609-1.233-.609,1.233a1.062,1.062,0,0,1-.8.581Z" transform="translate(6900.029 -6627.562)" fill="#9167f1"/>
    <path id="Trazado_917787" data-name="Trazado 917787" d="M309.159,44.311a1.061,1.061,0,0,1-.495-.122l-2.626-1.381-2.627,1.381a1.062,1.062,0,0,1-1.541-1.119l.5-2.925-2.124-2.072a1.062,1.062,0,0,1,.589-1.812l2.937-.425,1.315-2.661a1.068,1.068,0,0,1,1.912,0l1.313,2.66,2.938.425a1.062,1.062,0,0,1,.588,1.812l-2.124,2.072.5,2.925a1.062,1.062,0,0,1-1.058,1.242m-5.889-6.258.983.956a1.062,1.062,0,0,1,.306.94l-.233,1.355,1.217-.637a1.062,1.062,0,0,1,.989,0l1.215.637-.232-1.348a1.062,1.062,0,0,1,.3-.94l.985-.956-1.361-.2a1.062,1.062,0,0,1-.8-.581l-.608-1.232-.609,1.232a1.062,1.062,0,0,1-.8.581Z" transform="translate(6716.279 -6627.527)" fill="#9167f1"/>
  </g>
</svg>
