<svg xmlns="http://www.w3.org/2000/svg" width="190" height="94" viewBox="0 0 190 94">
  <g id="Grupo_1128079" data-name="Grupo 1128079" transform="translate(-180.051 -1600.361)">
    <rect id="Rectángulo_406391" data-name="Rectángulo 406391" width="190" height="94" transform="translate(180.051 1600.361)" fill="#f5fef9"/>
    <g id="supermercado-en-linea" transform="translate(215.699 1611.961)">
      <g id="Grupo_1128077" data-name="Grupo 1128077" transform="translate(34.197 1.03)">
        <path id="Trazado_917413" data-name="Trazado 917413" d="M70.5,75.732H46.929a6.262,6.262,0,0,1-6.262-6.262V13.762A6.262,6.262,0,0,1,46.929,7.5H70.5a6.262,6.262,0,0,1,6.262,6.262V69.47A6.262,6.262,0,0,1,70.5,75.732Z" transform="translate(-40.667 -7.5)" fill="#7a6d79"/>
        <path id="Trazado_917414" data-name="Trazado 917414" d="M240.793,13.762V69.47a6.262,6.262,0,0,1-6.262,6.262H230.8a6.262,6.262,0,0,0,6.262-6.262V13.762A6.262,6.262,0,0,0,230.8,7.5h3.729a6.262,6.262,0,0,1,6.262,6.262Z" transform="translate(-204.7 -7.5)" fill="#685e68"/>
        <path id="Trazado_917415" data-name="Trazado 917415" d="M92.919,93.27H71.364a3.541,3.541,0,0,1-3.541-3.541V70.263l.815-12.356-.815-12.356V35.218a3.541,3.541,0,0,1,3.541-3.541H92.919a3.541,3.541,0,0,1,3.541,3.541V89.729a3.541,3.541,0,0,1-3.541,3.541Z" transform="translate(-64.095 -28.358)" fill="#eaf6ff"/>
        <path id="Trazado_917416" data-name="Trazado 917416" d="M236.03,35.221V89.732a3.541,3.541,0,0,1-3.541,3.541H229.6a3.542,3.542,0,0,0,3.542-3.541V35.221A3.542,3.542,0,0,0,229.6,31.68h2.886A3.541,3.541,0,0,1,236.03,35.221Z" transform="translate(-203.665 -28.36)" fill="#c8effe"/>
        <path id="Trazado_917417" data-name="Trazado 917417" d="M127.952,7.5H111.235l1.388,4.331a2.058,2.058,0,0,0,1.96,1.43H124.6a2.058,2.058,0,0,0,1.96-1.43Z" transform="translate(-101.547 -7.5)" fill="#7a6d79"/>
        <path id="Trazado_917418" data-name="Trazado 917418" d="M120.387,157.451H67.823V132.74h52.564a2.832,2.832,0,0,1,2.832,2.832v19.047A2.832,2.832,0,0,1,120.387,157.451Z" transform="translate(-64.095 -115.546)" fill="#97da7b"/>
        <path id="Trazado_917419" data-name="Trazado 917419" d="M437.368,135.572v19.047a2.833,2.833,0,0,1-2.832,2.832h-2.573a2.833,2.833,0,0,0,2.832-2.832V135.572a2.833,2.833,0,0,0-2.832-2.832h2.573A2.833,2.833,0,0,1,437.368,135.572Z" transform="translate(-378.243 -115.546)" fill="#80d261"/>
        <path id="Trazado_917420" data-name="Trazado 917420" d="M122.1,344.438h13.735v4.22H122.1Z" transform="translate(-110.918 -298.181)" fill="#f47c7c"/>
        <path id="Trazado_917421" data-name="Trazado 917421" d="M114.556,211.514l3.307-.514,3.307.514.564,4.978-.564,4.207h-6.613Z" transform="translate(-104.412 -183.062)" fill="#fedba6"/>
        <path id="Trazado_917422" data-name="Trazado 917422" d="M114.556,197.656h6.613l.266-1.189-.266-1.53h-5.542Z" transform="translate(-104.412 -169.204)" fill="#f47c7c"/>
        <path id="Trazado_917423" data-name="Trazado 917423" d="M258.076,211.514,254.611,211l-3.148.514-.627,4.593.627,4.592h6.613Z" transform="translate(-221.982 -183.062)" fill="#fedba6"/>
        <path id="Trazado_917424" data-name="Trazado 917424" d="M259.951,197.656h-6.613l-.328-1.359.328-1.359h5.542Z" transform="translate(-223.857 -169.204)" fill="#f47c7c"/>
        <path id="Trazado_917425" data-name="Trazado 917425" d="M175.45,192.4l-6.361-.4-6.361.4v11.9h3.527l1.837-.29,1.837.29h5.522Z" transform="translate(-145.97 -166.671)" fill="#ffefd2"/>
        <path id="Trazado_917426" data-name="Trazado 917426" d="M175.45,170.927H162.727l.663-3.821h11.4Z" transform="translate(-145.97 -145.194)" fill="#f47c7c"/>
        <path id="Trazado_917427" data-name="Trazado 917427" d="M188.418,236.15h3.674V242.4h-3.674Z" transform="translate(-168.134 -204.759)" fill="#f47c7c"/>
        <path id="Trazado_917428" data-name="Trazado 917428" d="M352.493,212.963h-8.7v-6.88h10.391Z" transform="translate(-302.179 -178.82)" fill="#eaf6ff"/>
      </g>
      <g id="Grupo_1128078" data-name="Grupo 1128078" transform="translate(33.167)">
        <path id="Trazado_917429" data-name="Trazado 917429" d="M90.489,17.194H71.32v-9.9A7.3,7.3,0,0,0,64.028,0H40.459a7.3,7.3,0,0,0-7.292,7.292v8.359a1.03,1.03,0,1,0,2.059,0V7.292a5.238,5.238,0,0,1,5.232-5.232H64.028A5.238,5.238,0,0,1,69.26,7.292v9.9H67.592V7.89a4.576,4.576,0,0,0-4.571-4.571H59.552a1.042,1.042,0,0,0-1,.725l-.321,1a1.025,1.025,0,0,1-.98.715H47.233a1.025,1.025,0,0,1-.98-.715l-.321-1a1.042,1.042,0,0,0-.984-.724H41.466A4.576,4.576,0,0,0,36.9,7.89V62.4a4.576,4.576,0,0,0,4.571,4.571H63.021A4.576,4.576,0,0,0,67.592,62.4V47.982a1.03,1.03,0,0,0-2.059,0V62.4a2.514,2.514,0,0,1-2.512,2.512H41.466A2.514,2.514,0,0,1,38.954,62.4V43.964H69.26V63a5.238,5.238,0,0,1-5.232,5.232H40.459A5.238,5.238,0,0,1,35.226,63V20.639a1.03,1.03,0,1,0-2.059,0V63a7.3,7.3,0,0,0,7.292,7.292H64.028A7.3,7.3,0,0,0,71.32,63V43.964h19.17A3.866,3.866,0,0,0,94.351,40.1V21.056a3.866,3.866,0,0,0-3.862-3.862ZM41.466,5.379H44.2a3.164,3.164,0,0,0,3.036,2.442H57.254A3.165,3.165,0,0,0,60.29,5.379h2.731A2.514,2.514,0,0,1,65.532,7.89v9.3H38.954V7.89A2.514,2.514,0,0,1,41.466,5.379ZM92.292,40.1a1.8,1.8,0,0,1-1.8,1.8H38.954V19.253H90.489a1.8,1.8,0,0,1,1.8,1.8V40.1Z" transform="translate(-33.167)"/>
        <path id="Trazado_917430" data-name="Trazado 917430" d="M130.391,342.188v-4.22a1.029,1.029,0,0,0-1.03-1.03H115.627a1.03,1.03,0,0,0-1.03,1.03v4.22a1.03,1.03,0,0,0,1.03,1.03h13.735A1.03,1.03,0,0,0,130.391,342.188Zm-2.059-1.03H116.656V339h11.675Z" transform="translate(-103.418 -290.682)"/>
        <path id="Trazado_917431" data-name="Trazado 917431" d="M115.627,96.536h13.735a1.03,1.03,0,1,0,0-2.059H115.627a1.03,1.03,0,1,0,0,2.059Z" transform="translate(-103.418 -81.507)"/>
        <path id="Trazado_917432" data-name="Trazado 917432" d="M135.063,167.142a1,1,0,0,0-.079-.369l-1.062-2.695a1.029,1.029,0,0,0-.958-.652h-4.675l-.515-2.967a1.03,1.03,0,0,0-1.015-.854h-11.4a1.03,1.03,0,0,0-1.015.854l-.515,2.967h-4.675a1.03,1.03,0,0,0-.958.652l-1.071,2.719a1.048,1.048,0,0,0-.072.378v9.185a1.03,1.03,0,0,0,1.03,1.03h25.949a1.029,1.029,0,0,0,1.03-1.03v-1.782a1.03,1.03,0,0,0-2.059,0v.752h-4.554V168.2h4.554v1.431a1.03,1.03,0,1,0,2.059,0v-2.461Zm-18.835-5.478h9.664l.306,1.762H115.923Zm-6.37,3.821h3.811v.66H109.6Zm-.743,2.719h4.554v7.126h-4.554Zm6.613-2.719h10.664v9.844H122.93v-5.216a1.029,1.029,0,0,0-1.03-1.03h-3.674a1.029,1.029,0,0,0-1.03,1.03v5.216h-1.468Zm3.527,9.844v-4.187h1.615v4.187Zm9.2-9.185v-.66h3.811l.26.66Z" transform="translate(-96.912 -137.693)"/>
        <path id="Trazado_917433" data-name="Trazado 917433" d="M350.531,181.792h-2.251a1.029,1.029,0,0,0-1,.784l-.374,1.521h-9.583a1.03,1.03,0,0,0-1.03,1.03v6.88a1.03,1.03,0,0,0,1.03,1.03h8.7a1.03,1.03,0,0,0,1-.784l1.691-6.88h0l.374-1.521h1.443a1.03,1.03,0,1,0,0-2.059Zm-5.316,9.185h-6.862v-4.821H346.4Z" transform="translate(-294.679 -156.834)"/>
        <circle id="Elipse_12852" data-name="Elipse 12852" cx="1.065" cy="1.065" r="1.065" transform="translate(42.645 37.311)"/>
        <circle id="Elipse_12853" data-name="Elipse 12853" cx="1.065" cy="1.065" r="1.065" transform="translate(49.389 37.311)"/>
        <path id="Trazado_917434" data-name="Trazado 917434" d="M134.476,403.5h-11.8a1.03,1.03,0,1,0,0,2.059h11.8a1.03,1.03,0,1,0,0-2.059Z" transform="translate(-109.5 -348.105)"/>
      </g>
    </g>
  </g>
</svg>
