<svg xmlns="http://www.w3.org/2000/svg" width="61.422" height="59" viewBox="0 0 61.422 59">
  <g id="vendedora" transform="translate(0 -10.096)">
    <path id="Trazado_917573" data-name="Trazado 917573" d="M26.017,83l3.1-1.17a4.034,4.034,0,0,1-1.725-3.31V61.91a13.405,13.405,0,0,1,3.681-9.245H8.1a.6.6,0,0,0-.6.6v50.847a.6.6,0,0,0,.6.6H22.5V88.089A5.435,5.435,0,0,1,26.017,83Z" transform="translate(-6.6 -37.462)" fill="#eaf6ff"/>
    <g id="Grupo_1128087" data-name="Grupo 1128087" transform="translate(0.9 15.203)">
      <path id="Trazado_917574" data-name="Trazado 917574" d="M12.558,104.112V53.265a.6.6,0,0,1,.6-.6H8.1a.6.6,0,0,0-.6.6v50.847a.6.6,0,0,0,.6.6h5.058A.6.6,0,0,1,12.558,104.112Z" transform="translate(-7.5 -52.665)" fill="#d8ecfe"/>
    </g>
    <path id="Trazado_917575" data-name="Trazado 917575" d="M59.774,357.056H50.455a.6.6,0,0,0-.6.6v2.759a.6.6,0,0,0,.6.6h9.319v-3.958Z" transform="translate(-43.874 -305.337)" fill="#05e39c"/>
    <g id="Grupo_1128088" data-name="Grupo 1128088" transform="translate(5.981 51.719)">
      <path id="Trazado_917576" data-name="Trazado 917576" d="M53.872,360.414v-2.759a.6.6,0,0,1,.6-.6H50.455a.6.6,0,0,0-.6.6v2.759a.6.6,0,0,0,.6.6h4.017A.6.6,0,0,1,53.872,360.414Z" transform="translate(-49.855 -357.056)" fill="#0ed290"/>
    </g>
    <path id="Trazado_917577" data-name="Trazado 917577" d="M59.774,414.97H50.455a.6.6,0,0,0-.6.6v2.759a.6.6,0,0,0,.6.6h9.319V414.97Z" transform="translate(-43.874 -356.304)" fill="#05e39c"/>
    <g id="Grupo_1128089" data-name="Grupo 1128089" transform="translate(5.981 58.666)">
      <path id="Trazado_917578" data-name="Trazado 917578" d="M53.872,418.328V415.57a.6.6,0,0,1,.6-.6H50.455a.6.6,0,0,0-.6.6v2.759a.6.6,0,0,0,.6.6h4.017A.6.6,0,0,1,53.872,418.328Z" transform="translate(-49.855 -414.97)" fill="#0ed290"/>
    </g>
    <path id="Trazado_917579" data-name="Trazado 917579" d="M194.392,27.424a9.284,9.284,0,0,1,2-5.771,13.451,13.451,0,0,0-23.079,9.395V47.662a4.034,4.034,0,0,0,1.725,3.31l4.526-1.708v-.617a.408.408,0,0,1,.2-.349l2.752-1.652a10.273,10.273,0,0,0,4.027.817h.448a10.272,10.272,0,0,0,4.027-.817l2.752,1.652a.408.408,0,0,1,.2.349v.617l4.526,1.708a4.034,4.034,0,0,0,1.725-3.31V36.07a9.328,9.328,0,0,1-5.828-8.646Z" transform="translate(-152.524 -6.6)" fill="#a44f3e"/>
    <path id="Trazado_917580" data-name="Trazado 917580" d="M175.04,50.971l3.822-1.442a4.02,4.02,0,0,1-.458-1.868V31.047a13.456,13.456,0,0,1,10.908-13.211,13.459,13.459,0,0,0-16,13.211V47.661A4.034,4.034,0,0,0,175.04,50.971Z" transform="translate(-152.523 -6.599)" fill="#883f2e"/>
    <g id="Grupo_1128090" data-name="Grupo 1128090" transform="translate(15.9 42.664)">
      <path id="Trazado_917581" data-name="Trazado 917581" d="M355.156,285.824a5.425,5.425,0,0,0-2.051-1.372l-7.626-2.877v4.25Z" transform="translate(-319.935 -281.574)" fill="#fea95c"/>
      <path id="Trazado_917582" data-name="Trazado 917582" d="M152.288,285.962l-1.4,1.718-1.4-1.718-5.184,3.049a.408.408,0,0,1-.614-.351v-7.087l-7.626,2.877a5.435,5.435,0,0,0-3.516,5.085v16.623h24.784V288.924Z" transform="translate(-132.541 -281.573)" fill="#fea95c"/>
    </g>
    <g id="Grupo_1128092" data-name="Grupo 1128092" transform="translate(15.9 43.979)">
      <g id="Grupo_1128091" data-name="Grupo 1128091">
        <path id="Trazado_917583" data-name="Trazado 917583" d="M140.2,292.536l-4.14,1.562a5.435,5.435,0,0,0-3.516,5.085v16.623h5.094V297.15a5.436,5.436,0,0,1,2.563-4.614Z" transform="translate(-132.539 -292.536)" fill="#fe9738"/>
      </g>
    </g>
    <path id="Trazado_917584" data-name="Trazado 917584" d="M239.059,267.212a.6.6,0,0,1,.6-.6h.162v-4.867a.408.408,0,0,0-.2-.349l-2.752-1.652a10.272,10.272,0,0,1-4.027.817h-.448a10.273,10.273,0,0,1-4.027-.817l-2.752,1.652a.408.408,0,0,0-.2.349v7.7a.408.408,0,0,0,.614.351l6.381-3.754a.407.407,0,0,1,.413,0l6.233,3.667v-2.5Z" transform="translate(-198.375 -219.698)" fill="#fe7701"/>
    <g id="Grupo_1128093" data-name="Grupo 1128093" transform="translate(30.711 40.316)">
      <path id="Trazado_917585" data-name="Trazado 917585" d="M259.757,262.548h-.448A10.287,10.287,0,0,1,256,262v4.131l3.533,4.324,3.533-4.324V262A10.285,10.285,0,0,1,259.757,262.548Z" transform="translate(-256 -262.002)" fill="#ffb09e"/>
    </g>
    <g id="Grupo_1128094" data-name="Grupo 1128094" transform="translate(30.711 40.316)">
      <path id="Trazado_917586" data-name="Trazado 917586" d="M259.479,265.533v-2.985h-.17A10.287,10.287,0,0,1,256,262v4.131l3.533,4.324,1.985-2.429Z" transform="translate(-256 -262.002)" fill="#f89580"/>
    </g>
    <g id="Grupo_1128102" data-name="Grupo 1128102" transform="translate(18.81 20.957)">
      <g id="Grupo_1128096" data-name="Grupo 1128096" transform="translate(0 5.625)">
        <g id="Grupo_1128095" data-name="Grupo 1128095">
          <path id="Trazado_917587" data-name="Trazado 917587" d="M161.7,151.5v-3.935c0-.013,0-.026,0-.04h-1.259a3.646,3.646,0,0,0-3.646,3.646v.5a3.646,3.646,0,0,0,3.646,3.646h1.99A10.274,10.274,0,0,1,161.7,151.5Z" transform="translate(-156.799 -147.522)" fill="#f89580"/>
        </g>
        <path id="Trazado_917588" data-name="Trazado 917588" d="M367.848,155.88v2.972a10.272,10.272,0,0,1-.732,3.815h1.99a3.646,3.646,0,0,0,3.646-3.646v-.5c0-.068,0-.136-.006-.2A9.3,9.3,0,0,1,367.848,155.88Z" transform="translate(-341.885 -154.877)" fill="#ffb09e"/>
      </g>
      <path id="Trazado_917589" data-name="Trazado 917589" d="M215.836,100.668a3.428,3.428,0,0,0-.5-.036h-2.732a1.626,1.626,0,0,0-1.174.5l-1.248,1.3a1.51,1.51,0,0,1-1.09.465h-8.021a3.4,3.4,0,0,0-3.4,3.4v3.935a10.305,10.305,0,0,0,10.305,10.305h.448a10.305,10.305,0,0,0,10.305-10.305V107.26A9.3,9.3,0,0,1,215.836,100.668Z" transform="translate(-192.774 -100.632)" fill="#ffcebf"/>
      <g id="Grupo_1128098" data-name="Grupo 1128098" transform="translate(4.904 2.268)">
        <g id="Grupo_1128097" data-name="Grupo 1128097">
          <path id="Trazado_917590" data-name="Trazado 917590" d="M201.731,126.867v-3.935a3.4,3.4,0,0,1,3.4-3.4h-4.052a3.4,3.4,0,0,0-3.4,3.4v3.935a10.305,10.305,0,0,0,10.305,10.305h.448a10.36,10.36,0,0,0,1.8-.16,10.306,10.306,0,0,1-8.5-10.145Z" transform="translate(-197.679 -119.535)" fill="#ffb09e"/>
        </g>
      </g>
      <g id="Grupo_1128101" data-name="Grupo 1128101" transform="translate(11.834 12.943)">
        <g id="Grupo_1128099" data-name="Grupo 1128099" transform="translate(0)">
          <path id="Trazado_917591" data-name="Trazado 917591" d="M256.265,208.519a.817.817,0,0,0-.72,1.2,3.956,3.956,0,0,0,7.006,0,.817.817,0,0,0-.72-1.2Z" transform="translate(-255.45 -208.519)" fill="#fd8087"/>
        </g>
        <g id="Grupo_1128100" data-name="Grupo 1128100">
          <path id="Trazado_917592" data-name="Trazado 917592" d="M258.49,209.719a.817.817,0,0,1,.72-1.2h-2.945a.817.817,0,0,0-.72,1.2,3.951,3.951,0,0,0,4.976,1.832A3.968,3.968,0,0,1,258.49,209.719Z" transform="translate(-255.449 -208.519)" fill="#fe646f"/>
        </g>
      </g>
    </g>
    <g id="Grupo_1128105" data-name="Grupo 1128105" transform="translate(19.976 52.439)">
      <g id="Grupo_1128103" data-name="Grupo 1128103">
        <circle id="Elipse_12854" data-name="Elipse 12854" cx="4.688" cy="4.688" r="4.688" fill="#fff"/>
      </g>
      <g id="Grupo_1128104" data-name="Grupo 1128104" transform="translate(0)">
        <path id="Trazado_917593" data-name="Trazado 917593" d="M169.558,367.746a4.689,4.689,0,0,1,3.169-4.435,4.688,4.688,0,1,0,0,8.869A4.689,4.689,0,0,1,169.558,367.746Z" transform="translate(-166.52 -363.058)" fill="#eaf6ff"/>
      </g>
    </g>
    <path id="Trazado_917594" data-name="Trazado 917594" d="M351.715,337.015a1.342,1.342,0,0,0,0-2.337,1.307,1.307,0,0,0,0-2.3,1.342,1.342,0,0,0,0-2.337,1.329,1.329,0,0,1,1.34-1.267h2.1a2.187,2.187,0,0,1,.368.033V317.6a.6.6,0,0,0-.6-.6H339.731a.6.6,0,0,0-.6.6v19.736h12.637A1.266,1.266,0,0,1,351.715,337.015Z" transform="translate(-298.447 -270.086)" fill="#eaf6ff"/>
    <g id="Grupo_1128106" data-name="Grupo 1128106" transform="translate(40.684 46.914)">
      <path id="Trazado_917595" data-name="Trazado 917595" d="M344.081,317h-4.35a.6.6,0,0,0-.6.6v19.736h4.35V317.6A.6.6,0,0,1,344.081,317Z" transform="translate(-339.131 -317)" fill="#d8ecfe"/>
    </g>
    <g id="Grupo_1128109" data-name="Grupo 1128109" transform="translate(53.267 58.689)">
      <g id="Grupo_1128108" data-name="Grupo 1128108">
        <g id="Grupo_1128107" data-name="Grupo 1128107">
          <path id="Trazado_917596" data-name="Trazado 917596" d="M444.022,418.765a1.342,1.342,0,0,0,0-2.337,1.329,1.329,0,0,1,1.34-1.267h2.1a2.188,2.188,0,0,1,2.188,2.188v5.131a2.188,2.188,0,0,1-2.188,2.188h-2.1a1.329,1.329,0,0,1-1.34-1.267,1.342,1.342,0,0,0,0-2.337,1.308,1.308,0,0,0,0-2.3Z" transform="translate(-444.022 -415.161)" fill="#ffcebf"/>
        </g>
      </g>
    </g>
    <g id="Grupo_1128112" data-name="Grupo 1128112" transform="translate(5.981 19.959)">
      <g id="Grupo_1128110" data-name="Grupo 1128110" transform="translate(0 0)">
        <path id="Trazado_917597" data-name="Trazado 917597" d="M57.408,100.106H50.455a.6.6,0,0,1-.6-.6v-6.6a.6.6,0,0,1,.6-.6h6.953a.6.6,0,0,1,.6.6v6.6A.6.6,0,0,1,57.408,100.106Z" transform="translate(-49.855 -92.308)" fill="#fff"/>
      </g>
      <g id="Grupo_1128111" data-name="Grupo 1128111" transform="translate(0 0)">
        <path id="Trazado_917598" data-name="Trazado 917598" d="M52.872,99.506v-6.6a.6.6,0,0,1,.6-.6H50.455a.6.6,0,0,0-.6.6v6.6a.6.6,0,0,0,.6.6h3.017A.6.6,0,0,1,52.872,99.506Z" transform="translate(-49.855 -92.308)" fill="#f9f3f1"/>
      </g>
    </g>
    <g id="Grupo_1128115" data-name="Grupo 1128115" transform="translate(5.981 35.277)">
      <g id="Grupo_1128113" data-name="Grupo 1128113" transform="translate(0 0)">
        <path id="Trazado_917599" data-name="Trazado 917599" d="M57.408,227.8H50.455a.6.6,0,0,1-.6-.6v-6.6a.6.6,0,0,1,.6-.6h6.953a.6.6,0,0,1,.6.6v6.6A.6.6,0,0,1,57.408,227.8Z" transform="translate(-49.855 -220.004)" fill="#fff"/>
      </g>
      <g id="Grupo_1128114" data-name="Grupo 1128114" transform="translate(0 0)">
        <path id="Trazado_917600" data-name="Trazado 917600" d="M52.872,227.2v-6.6a.6.6,0,0,1,.6-.6H50.455a.6.6,0,0,0-.6.6v6.6a.6.6,0,0,0,.6.6h3.017A.6.6,0,0,1,52.872,227.2Z" transform="translate(-49.855 -220.004)" fill="#f9f3f1"/>
      </g>
    </g>
    <g id="Grupo_1128118" data-name="Grupo 1128118" transform="translate(41.868 11.497)">
      <g id="Grupo_1128116" data-name="Grupo 1128116" transform="translate(0 0)">
        <circle id="Elipse_12855" data-name="Elipse 12855" cx="9.327" cy="9.327" r="9.327" fill="#ffe177"/>
      </g>
      <g id="Grupo_1128117" data-name="Grupo 1128117" transform="translate(0 0)">
        <path id="Trazado_917601" data-name="Trazado 917601" d="M353.079,31.1a9.329,9.329,0,0,1,7.288-9.1,9.327,9.327,0,1,0,0,18.2,9.329,9.329,0,0,1-7.288-9.1Z" transform="translate(-349 -21.773)" fill="#ffd15b"/>
      </g>
    </g>
    <g id="Grupo_1128119" data-name="Grupo 1128119" transform="translate(8.766 23.52)">
      <path id="Trazado_917602" data-name="Trazado 917602" d="M77.559,122a4.5,4.5,0,0,0-4.491,4.236h4.768a.6.6,0,0,0,.6-.6v-3.55A4.519,4.519,0,0,0,77.559,122Z" transform="translate(-73.068 -122)" fill="#05e39c"/>
    </g>
    <g id="Grupo_1128120" data-name="Grupo 1128120" transform="translate(5.981 38.276)">
      <path id="Trazado_917603" data-name="Trazado 917603" d="M50.652,245a4.521,4.521,0,0,0-.8.072V249.2a.6.6,0,0,0,.6.6H55.14c.007-.1.011-.2.011-.3A4.5,4.5,0,0,0,50.652,245Z" transform="translate(-49.855 -245)" fill="#05e39c"/>
    </g>
    <g id="Grupo_1128121" data-name="Grupo 1128121" transform="translate(5.981 38.276)">
      <path id="Trazado_917604" data-name="Trazado 917604" d="M50.455,249.8h2.417v-4.214a4.486,4.486,0,0,0-3.017-.514V249.2A.6.6,0,0,0,50.455,249.8Z" transform="translate(-49.855 -245)" fill="#0ed290"/>
    </g>
    <g id="Grupo_1128122" data-name="Grupo 1128122" transform="translate(0 10.096)">
      <path id="Trazado_917605" data-name="Trazado 917605" d="M266.837,155.059a.9.9,0,1,0,1.21-1.332l-.914-.831,1-1.186a.9.9,0,0,0-1.377-1.158L265.2,152.4a.9.9,0,0,0,.083,1.245Z" transform="translate(-233.198 -133.421)"/>
      <path id="Trazado_917606" data-name="Trazado 917606" d="M241.068,146.723V144.65a.9.9,0,0,0-1.8,0v2.073a.9.9,0,0,0,1.8,0Z" transform="translate(-210.565 -127.716)"/>
      <path id="Trazado_917607" data-name="Trazado 917607" d="M317.53,143.75a.9.9,0,0,0-.9.9v2.073a.9.9,0,1,0,1.8,0V144.65A.9.9,0,0,0,317.53,143.75Z" transform="translate(-278.646 -127.716)"/>
      <path id="Trazado_917608" data-name="Trazado 917608" d="M255.225,201.02h-5.567a1.717,1.717,0,0,0-1.516,2.518,4.856,4.856,0,0,0,8.6,0,1.717,1.717,0,0,0-1.516-2.518Zm-2.784,3.318a3.049,3.049,0,0,1-2.641-1.519h5.283A3.049,3.049,0,0,1,252.441,204.338Z" transform="translate(-218.198 -178.116)"/>
      <path id="Trazado_917609" data-name="Trazado 917609" d="M164.607,355.559a5.588,5.588,0,1,0,5.588,5.588A5.594,5.594,0,0,0,164.607,355.559Zm0,9.376a3.788,3.788,0,1,1,3.788-3.788A3.792,3.792,0,0,1,164.607,364.935Z" transform="translate(-139.942 -314.116)"/>
      <path id="Trazado_917610" data-name="Trazado 917610" d="M193.83,381.61H192.2a.9.9,0,1,0,0,1.8h1.631a.9.9,0,0,0,0-1.8Z" transform="translate(-168.351 -337.042)"/>
      <path id="Trazado_917611" data-name="Trazado 917611" d="M57.971,58.063V55.671a.9.9,0,0,0-1.8,0V57.79H54.608a2.241,2.241,0,0,0-2.24,2.14,2.205,2.205,0,0,0,.321,1.217,2.208,2.208,0,0,0,0,2.3,2.208,2.208,0,0,0,0,2.3,2.193,2.193,0,0,0-.255.612H41.583V47.813H56.172v3.659a.9.9,0,0,0,1.8,0V47.513a1.5,1.5,0,0,0-1.5-1.5H51.485a6.281,6.281,0,0,0-2.1-1.315L47.6,44.026a4.911,4.911,0,0,0,.992-2.964V34.476a4.546,4.546,0,0,0,1.97-3.446c.208.013.418.021.629.021a10.225,10.225,0,0,0,8.856-15.339.9.9,0,0,0-1.558.9A8.416,8.416,0,1,1,55.9,13.834a.9.9,0,1,0,1.007-1.491,10.215,10.215,0,0,0-13.1,1.417A14.324,14.324,0,0,0,24.1,14.3H1.5A1.5,1.5,0,0,0,0,15.8V66.65a1.5,1.5,0,0,0,1.5,1.5H7.078a.9.9,0,0,0,0-1.8H1.8V16.1H22.574a14.273,14.273,0,0,0-2.683,8.345v2.03a4.544,4.544,0,0,0-1.981,3.751v.5a4.544,4.544,0,0,0,1.981,3.751v6.586a4.911,4.911,0,0,0,.992,2.964L19.1,44.7A6.366,6.366,0,0,0,15,50.626v.193H6.581a1.5,1.5,0,0,0-1.5,1.5v2.759a1.5,1.5,0,0,0,1.5,1.5H15v1.19H6.581a1.5,1.5,0,0,0-1.5,1.5v2.759a1.5,1.5,0,0,0,1.5,1.5H15V66.35H11.277a.9.9,0,1,0,0,1.8h41.5a2.261,2.261,0,0,0,1.833.946h2.1a3.091,3.091,0,0,0,3.088-3.088V60.877a3.091,3.091,0,0,0-1.82-2.814ZM15,61.725H6.881V59.566H15Zm0-6.948H6.881V52.619H15Zm32.775-8.764h-5.43V43.965Zm-2.1-15.457V29.425a10.167,10.167,0,0,0,3.1,1.334,2.749,2.749,0,0,1-2.745,2.712h-.744a11.186,11.186,0,0,0,.385-2.915Zm.358,4.714a4.553,4.553,0,0,0,.765-.066v5.856a3.131,3.131,0,0,1-.99,2.286l-3.461-1.306a1.314,1.314,0,0,0-.634-1.116L40.334,40.1a11.28,11.28,0,0,0,4.3-4.828Zm-2.158-7.316v2.6a9.416,9.416,0,0,1-9.405,9.405H34.02a9.416,9.416,0,0,1-9.405-9.405V26.622a2.5,2.5,0,0,1,2.5-2.5h8.021a2.421,2.421,0,0,0,1.739-.742l1.248-1.3a.73.73,0,0,1,.524-.224H41.02A10.2,10.2,0,0,0,43.873,27.954ZM27.942,42.325,29.811,41.2v3.244a.9.9,0,0,0,.2.569l1.465,1.793L27.942,48.89Zm-1.165-1.4a1.314,1.314,0,0,0-.634,1.116l-3.461,1.306a3.131,3.131,0,0,1-.99-2.286V35.205a4.553,4.553,0,0,0,.765.066h1.4a11.28,11.28,0,0,0,4.3,4.828ZM21.691,24.448a12.546,12.546,0,0,1,20.991-9.284A10.161,10.161,0,0,0,41,20.057H38.644a2.538,2.538,0,0,0-1.823.778l-1.248,1.3a.613.613,0,0,1-.44.188H27.111a4.3,4.3,0,0,0-4.192,3.357h-.463a4.553,4.553,0,0,0-.765.066ZM19.71,30.725v-.5a2.749,2.749,0,0,1,2.746-2.746h.358v3.074a11.181,11.181,0,0,0,.385,2.915h-.744A2.749,2.749,0,0,1,19.71,30.725ZM33.344,66.35H16.8V50.626a4.558,4.558,0,0,1,2.934-4.243l6.408-2.418V49.75a1.308,1.308,0,0,0,1.97,1.127l4.519-2.658.713.872ZM31.611,44.126V41.5a11.205,11.205,0,0,0,2.409.262h.448a11.2,11.2,0,0,0,2.409-.262v2.626l-2.633,3.222ZM39.784,66.35h-4.64V49.091l.713-.872,3.928,2.311V66.35Zm.762-20.141a1.5,1.5,0,0,0-.762,1.3v.929l-2.776-1.633,1.465-1.793a.9.9,0,0,0,.2-.569V41.2l1.869,1.122Zm17.446,19.8A1.29,1.29,0,0,1,56.7,67.3h-2.1a.429.429,0,0,1-.441-.394.408.408,0,0,1,.213-.372.9.9,0,0,0,0-1.58.408.408,0,0,1,0-.717.9.9,0,0,0,0-1.58.408.408,0,0,1,0-.717.9.9,0,0,0,0-1.58.408.408,0,0,1-.213-.372.429.429,0,0,1,.441-.394h2.1a1.29,1.29,0,0,1,1.288,1.288Z" transform="translate(0 -10.096)"/>
      <path id="Trazado_917612" data-name="Trazado 917612" d="M43.855,94.406h6.953a1.5,1.5,0,0,0,1.5-1.5v-6.6a1.5,1.5,0,0,0-1.5-1.5H43.855a1.5,1.5,0,0,0-1.5,1.5v6.6A1.5,1.5,0,0,0,43.855,94.406Zm6.653-1.8H47.124a3.6,3.6,0,0,1,3.384-2.436Zm-6.353-6h6.353V88.37a5.4,5.4,0,0,0-5.249,4.236h-1.1Z" transform="translate(-37.274 -75.845)"/>
      <path id="Trazado_917613" data-name="Trazado 917613" d="M43.255,179.781h8.153a.9.9,0,1,0,0-1.8H43.255a.9.9,0,1,0,0,1.8Z" transform="translate(-37.274 -157.842)"/>
      <path id="Trazado_917614" data-name="Trazado 917614" d="M42.355,220.6a1.5,1.5,0,0,0,1.5,1.5h6.953a1.5,1.5,0,0,0,1.5-1.5V214a1.5,1.5,0,0,0-1.5-1.5H43.855a1.5,1.5,0,0,0-1.5,1.5Zm1.8-6.3h6.353v6H49.416a5.4,5.4,0,0,0-5.262-4.8Zm0,3a3.6,3.6,0,0,1,3.446,3H44.154Z" transform="translate(-37.274 -188.222)"/>
      <path id="Trazado_917615" data-name="Trazado 917615" d="M43.255,307.477h8.153a.9.9,0,1,0,0-1.8H43.255a.9.9,0,1,0,0,1.8Z" transform="translate(-37.274 -270.219)"/>
      <path id="Trazado_917616" data-name="Trazado 917616" d="M398.058,56.634a.9.9,0,0,0,.9-.9V54.643h.172a2.839,2.839,0,1,0,0-5.679h-2.144a1.04,1.04,0,1,1,0-2.08h3.777a.9.9,0,0,0,0-1.8h-1.805V43.995a.9.9,0,1,0-1.8,0v1.091h-.172a2.839,2.839,0,1,0,0,5.679h2.144a1.04,1.04,0,0,1,0,2.08h-3.777a.9.9,0,0,0,0,1.8h1.805v1.091A.9.9,0,0,0,398.058,56.634Z" transform="translate(-346.863 -39.136)"/>
    </g>
  </g>
</svg>
