<svg xmlns="http://www.w3.org/2000/svg" width="93.949" height="93.949" viewBox="0 0 93.949 93.949">
  <g id="asesor-financiero" transform="translate(-1 -1)">
    <path id="Trazado_917564" data-name="Trazado 917564" d="M71.286,5.546H65.358A8.5,8.5,0,0,0,57.844,1H53.617A8.5,8.5,0,0,0,46.1,5.546H40.175A7.183,7.183,0,0,0,33,12.719a7.393,7.393,0,0,0,.071,1.015l2.281,15.956a7.21,7.21,0,0,0,7.1,6.161h8.095l6.516,6.631.133.121a3.759,3.759,0,0,0,6.108-2.935V35.852h5.7a7.213,7.213,0,0,0,7.1-6.16L78.39,13.73a7.483,7.483,0,0,0,.07-1.011,7.182,7.182,0,0,0-7.173-7.173ZM53.616,4.031h4.226a5.435,5.435,0,0,1,5.041,7.537,4.523,4.523,0,0,0-2.09-2.155L55.73,6.882,50.665,9.415a4.523,4.523,0,0,0-2.09,2.155,5.437,5.437,0,0,1,5.04-7.539Zm.6,16.668a3.034,3.034,0,0,1-3.031-3.031V13.48a1.506,1.506,0,0,1,.838-1.355l3.708-1.855,3.708,1.855a1.506,1.506,0,0,1,.838,1.355v4.188A3.034,3.034,0,0,1,57.245,20.7ZM38.352,29.264,36.072,13.312a4.562,4.562,0,0,1-.041-.592,4.149,4.149,0,0,1,4.143-4.143h5a8.734,8.734,0,0,0-.052.917A8.465,8.465,0,0,0,46.548,14.2l1.6,2.408v1.056a6.036,6.036,0,0,0,1.823,4.322A13.655,13.655,0,0,0,42.186,32.8a4.154,4.154,0,0,1-3.834-3.534Zm21.924,3.558v6.848a.756.756,0,0,1-1.13.608l-7.327-7.455H45.244a10.593,10.593,0,0,1,20.972,0ZM75.388,13.306,73.107,29.264A4.152,4.152,0,0,1,69.275,32.8a13.657,13.657,0,0,0-7.79-10.807,6.035,6.035,0,0,0,1.821-4.32V16.612l1.6-2.406a8.47,8.47,0,0,0,1.426-4.713,8.734,8.734,0,0,0-.052-.917h5a4.149,4.149,0,0,1,4.143,4.143,4.4,4.4,0,0,1-.041.586Z" transform="translate(16.49 0)" fill="#9167f1"/>
    <path id="Trazado_917565" data-name="Trazado 917565" d="M86.385,58.582H83.19L75.614,85.857H66.005A7.59,7.59,0,0,0,58.582,79.8H55.272a4.54,4.54,0,0,0-4.267-3.031H37.367V75.25a30.989,30.989,0,0,0-6.061-18.431V51.725a13.541,13.541,0,0,0,4.546.8h9.092a4.546,4.546,0,1,0,0-9.092H41.913a4.484,4.484,0,0,0-.592.059,8.539,8.539,0,0,0,2.108-5.617v-2.6l.374-.188a4.807,4.807,0,0,0,1.849-6.966l-1.968-2.952a1.531,1.531,0,0,1-.255-.841V18.9a4.54,4.54,0,0,0,3.031-4.267A10.62,10.62,0,0,0,35.852,4.031H25.245A3.034,3.034,0,0,0,22.214,1H19.184a3.034,3.034,0,0,0-3.031,3.031v.077A16.684,16.684,0,0,0,1,20.7a8.043,8.043,0,0,0,1.794,5.166,5.061,5.061,0,0,1,1.236,3.417A5.069,5.069,0,0,1,2.794,32.7a8.331,8.331,0,0,0,0,10.33,5.06,5.06,0,0,1,1.236,3.416,5.063,5.063,0,0,1-1.238,3.42,8.348,8.348,0,0,0,0,10.337,5.074,5.074,0,0,1,1.238,3.423,5.074,5.074,0,0,1-1.238,3.423A8.063,8.063,0,0,0,1,72.22,7.585,7.585,0,0,0,8.577,79.8V94.949H37.367V88.888H49.49v3.031a3.034,3.034,0,0,0,3.031,3.031H79.8a6.067,6.067,0,0,0,6.061-6.061V87.573l5.873-22.03a5.532,5.532,0,0,0-5.346-6.961ZM62.849,85.857h-7.3V82.827h3.031A4.54,4.54,0,0,1,62.849,85.857ZM28.276,53.295A31.059,31.059,0,0,0,19.184,47V37.246a9.531,9.531,0,0,0,3.031,0v1.637a13.633,13.633,0,0,0,6.061,11.331ZM20.7,19.184a7.577,7.577,0,1,1-7.577,7.577A7.585,7.585,0,0,1,20.7,19.184ZM35.852,49.49a10.588,10.588,0,0,1-8.269-3.981l6.042.864a8.494,8.494,0,0,0,4.275-.486,4.476,4.476,0,0,0-.532,2.088,4.559,4.559,0,0,0,.259,1.515Zm9.092-3.031a1.515,1.515,0,1,1,0,3.031H41.913a1.515,1.515,0,0,1,0-3.031Zm-2.5-14.083-.374.188A3.01,3.01,0,0,0,40.4,35.273v2.6a5.566,5.566,0,0,1-5.558,5.56,5.46,5.46,0,0,1-.786-.056L25.78,42.191a10.572,10.572,0,0,1-.535-3.308V36.329a10.579,10.579,0,0,0,2.862-17.146H40.4v5.144a4.537,4.537,0,0,0,.764,2.521L43.13,29.8a1.776,1.776,0,0,1-.682,2.573Zm-6.6-25.315a7.585,7.585,0,0,1,7.577,7.577,1.517,1.517,0,0,1-1.515,1.515H25.245V7.061ZM22.214,4.031V16.274a9.531,9.531,0,0,0-3.031,0V4.031ZM4.031,72.22A5.071,5.071,0,0,1,5.269,68.8a8.063,8.063,0,0,0,1.793-5.17,8.063,8.063,0,0,0-1.793-5.17,5.347,5.347,0,0,1,0-6.843,8.053,8.053,0,0,0,1.793-5.167,8.038,8.038,0,0,0-1.794-5.164,5.337,5.337,0,0,1,0-6.834,8.055,8.055,0,0,0,1.793-5.166,8.038,8.038,0,0,0-1.794-5.164A5.071,5.071,0,0,1,4.031,20.7,13.654,13.654,0,0,1,16.153,7.151v10.04a10.584,10.584,0,0,0,0,19.138V47.035A13.468,13.468,0,0,0,8.577,59.167v17.6A4.551,4.551,0,0,1,4.031,72.22Zm30.306,19.7H11.607V79.639a19.684,19.684,0,0,0,16.668,9.249h6.061Zm-6.061-6.061A16.688,16.688,0,0,1,11.607,69.189V59.165a10.483,10.483,0,0,1,6.063-9.54A27.956,27.956,0,0,1,34.337,75.25v1.515H28.276A7.585,7.585,0,0,1,20.7,69.189V61.612H17.668v7.577A10.62,10.62,0,0,0,28.276,79.8h22.73a1.517,1.517,0,0,1,1.515,1.515v4.546ZM79.8,91.919H52.521V88.888H82.827A3.034,3.034,0,0,1,79.8,91.919ZM88.8,64.761l-5.626,21.1H78.758l6.734-24.245h.891a2.5,2.5,0,0,1,2.42,3.149Z" fill="#9167f1"/>
    <path id="Trazado_917566" data-name="Trazado 917566" d="M15.546,18.031a1.515,1.515,0,1,1,0,3.031v3.031A4.546,4.546,0,1,0,11,19.546h3.031A1.517,1.517,0,0,1,15.546,18.031Z" transform="translate(5.153 7.214)" fill="#9167f1"/>
    <path id="Trazado_917567" data-name="Trazado 917567" d="M35.546,35v3.031a4.546,4.546,0,1,0,0,9.092h3.031a1.515,1.515,0,0,1,0,3.031H35.546a1.517,1.517,0,0,1-1.515-1.515H31a4.551,4.551,0,0,0,4.546,4.546v3.031h3.031V53.184a4.546,4.546,0,1,0,0-9.092H35.546a1.515,1.515,0,1,1,0-3.031h3.031a1.517,1.517,0,0,1,1.515,1.515h3.031a4.551,4.551,0,0,0-4.546-4.546V35Z" transform="translate(15.459 17.521)" fill="#9167f1"/>
    <path id="Trazado_917568" data-name="Trazado 917568" d="M41,31H56.153v3.031H41Z" transform="translate(20.612 15.459)" fill="#9167f1"/>
    <path id="Trazado_917569" data-name="Trazado 917569" d="M41,35H56.153v3.031H41Z" transform="translate(20.612 17.521)" fill="#9167f1"/>
    <path id="Trazado_917570" data-name="Trazado 917570" d="M49,39h3.031v3.031H49Z" transform="translate(24.735 19.582)" fill="#9167f1"/>
    <path id="Trazado_917571" data-name="Trazado 917571" d="M45,39h3.031v3.031H45Z" transform="translate(22.674 19.582)" fill="#9167f1"/>
    <path id="Trazado_917572" data-name="Trazado 917572" d="M41,39h3.031v3.031H41Z" transform="translate(20.612 19.582)" fill="#9167f1"/>
  </g>
</svg>
