<svg xmlns="http://www.w3.org/2000/svg" width="63.722" height="63.722" viewBox="0 0 63.722 63.722">
  <g id="Grupo_1128158" data-name="Grupo 1128158" transform="translate(-851.278 -6104.95)">
    <path id="Trazado_917788" data-name="Trazado 917788" d="M1778.443,438.372h-61.6a1.062,1.062,0,0,1-1.062-1.062v-4.248a1.062,1.062,0,0,1,1.062-1.062h61.6a1.062,1.062,0,0,1,1.062,1.062v4.248a1.062,1.062,0,0,1-1.062,1.062m-60.536-2.124h59.474v-2.124h-59.474Z" transform="translate(-864.505 5730.3)" fill="#9167f1"/>
    <path id="Trazado_917789" data-name="Trazado 917789" d="M1925.341,249.489h-8.5a1.062,1.062,0,0,1-1.062-1.062V225.062a1.062,1.062,0,0,1,1.062-1.062h8.5a1.062,1.062,0,0,1,1.062,1.062v23.365a1.062,1.062,0,0,1-1.062,1.062m-7.434-2.124h6.372V226.124h-6.372Z" transform="translate(-1037.954 5910.687)" fill="#9167f1"/>
    <path id="Trazado_917790" data-name="Trazado 917790" d="M2021.341,221.737h-8.5a1.062,1.062,0,0,1-1.062-1.062V193.062a1.062,1.062,0,0,1,1.062-1.062h8.5a1.062,1.062,0,0,1,1.062,1.062v27.613a1.062,1.062,0,0,1-1.062,1.062m-7.434-2.124h6.372V194.124h-6.372Z" transform="translate(-1121.21 5938.439)" fill="#9167f1"/>
    <path id="Trazado_917791" data-name="Trazado 917791" d="M1733.341,304.993h-8.5a1.062,1.062,0,0,1-1.062-1.062V289.062a1.062,1.062,0,0,1,1.062-1.062h8.5a1.062,1.062,0,0,1,1.062,1.062v14.868a1.062,1.062,0,0,1-1.062,1.062m-7.434-2.124h6.372V290.124h-6.372Z" transform="translate(-871.443 5855.184)" fill="#9167f1"/>
    <path id="Trazado_917792" data-name="Trazado 917792" d="M1829.341,277.241h-8.5a1.062,1.062,0,0,1-1.062-1.062V257.062a1.062,1.062,0,0,1,1.062-1.062h8.5a1.062,1.062,0,0,1,1.062,1.062v19.117a1.062,1.062,0,0,1-1.062,1.062m-7.434-2.124h6.372V258.124h-6.372Z" transform="translate(-954.699 5882.936)" fill="#9167f1"/>
    <path id="Trazado_917793" data-name="Trazado 917793" d="M1747.644,25.489a1.062,1.062,0,0,1-.884-.473l-3.933-5.9h-21.735a5.316,5.316,0,0,1-5.31-5.31V5.31a5.316,5.316,0,0,1,5.31-5.31h53.1a5.316,5.316,0,0,1,5.31,5.31v8.5a5.316,5.316,0,0,1-5.31,5.31H1752.46l-3.93,5.9a1.062,1.062,0,0,1-.887.473M1721.093,2.124a3.186,3.186,0,0,0-3.186,3.186v8.5a3.186,3.186,0,0,0,3.186,3.186h22.3a1.062,1.062,0,0,1,.884.473l3.365,5.05,3.365-5.047a1.062,1.062,0,0,1,.884-.476h22.3a3.186,3.186,0,0,0,3.186-3.186V5.31a3.186,3.186,0,0,0-3.186-3.186Z" transform="translate(-864.505 6104.95)" fill="#9167f1"/>
    <path id="Trazado_917794" data-name="Trazado 917794" d="M1912.737,35.689a1.061,1.061,0,0,1-1.046-1.242l.5-2.925-2.124-2.072a1.062,1.062,0,0,1,.586-1.812l2.938-.425,1.31-2.663a1.106,1.106,0,0,1,1.9,0l1.315,2.661,2.935.425a1.062,1.062,0,0,1,.59,1.811l-2.124,2.073.5,2.925a1.062,1.062,0,0,1-1.541,1.119l-2.625-1.38-2.627,1.381a1.06,1.06,0,0,1-.494.122m3.121-3.765a1.054,1.054,0,0,1,.494.122l1.216.637-.23-1.349a1.063,1.063,0,0,1,.3-.939l.983-.956-1.359-.2a1.061,1.061,0,0,1-.8-.581l-.609-1.242-.607,1.233a1.061,1.061,0,0,1-.8.581l-1.361.2.985.956a1.062,1.062,0,0,1,.3.94l-.232,1.355,1.217-.637a1.052,1.052,0,0,1,.494-.121" transform="translate(-1032.719 6084.13)" fill="#9167f1"/>
    <path id="Trazado_917795" data-name="Trazado 917795" d="M1813.058,35.419a1.062,1.062,0,0,1-.494-.122l-2.627-1.381-2.626,1.381a1.062,1.062,0,0,1-1.541-1.119l.5-2.925-2.124-2.073a1.062,1.062,0,0,1,.588-1.805l2.938-.425,1.314-2.661a1.068,1.068,0,0,1,1.912,0l1.314,2.66,2.938.425a1.062,1.062,0,0,1,.588,1.812l-2.124,2.072.5,2.925a1.062,1.062,0,0,1-1.057,1.236m-5.89-6.258.985.956a1.062,1.062,0,0,1,.3.939l-.232,1.355,1.216-.637a1.062,1.062,0,0,1,.989,0l1.216.637-.233-1.347a1.062,1.062,0,0,1,.306-.94l.984-.956-1.36-.2a1.062,1.062,0,0,1-.8-.581l-.609-1.233-.609,1.233a1.062,1.062,0,0,1-.8.581Z" transform="translate(-940.865 6084.4)" fill="#9167f1"/>
    <path id="Trazado_917796" data-name="Trazado 917796" d="M2024.942,35.384a1.061,1.061,0,0,1-.495-.122l-2.627-1.381-2.627,1.381a1.062,1.062,0,0,1-1.541-1.119l.5-2.925-2.124-2.072a1.062,1.062,0,0,1,.589-1.812l2.937-.425,1.315-2.661a1.068,1.068,0,0,1,1.912,0l1.313,2.66,2.938.425a1.062,1.062,0,0,1,.588,1.812l-2.124,2.072.5,2.925a1.062,1.062,0,0,1-1.058,1.242m-5.889-6.258.983.956a1.062,1.062,0,0,1,.306.94l-.233,1.355,1.217-.637a1.062,1.062,0,0,1,.989,0l1.215.637-.232-1.348a1.063,1.063,0,0,1,.3-.94l.984-.956-1.36-.2a1.061,1.061,0,0,1-.8-.581l-.608-1.232-.609,1.232a1.062,1.062,0,0,1-.8.581Z" transform="translate(-1124.615 6084.435)" fill="#9167f1"/>
  </g>
</svg>
