<svg xmlns="http://www.w3.org/2000/svg" xmlns:xlink="http://www.w3.org/1999/xlink" width="136" height="136" viewBox="0 0 136 136">
  <defs>
    <filter id="Elipse_11661" x="0" y="0" width="136" height="136" filterUnits="userSpaceOnUse">
      <feOffset dy="3" input="SourceAlpha"/>
      <feGaussianBlur stdDeviation="3" result="blur"/>
      <feFlood flood-opacity="0.161"/>
      <feComposite operator="in" in2="blur"/>
      <feComposite in="SourceGraphic"/>
    </filter>
  </defs>
  <g id="Grupo_1128193" data-name="Grupo 1128193" transform="translate(-367.975 -3802.382)">
    <g id="Grupo_1112316" data-name="Grupo 1112316" transform="translate(-105.025 -1773.352)">
      <g transform="matrix(1, 0, 0, 1, 473, 5575.73)" filter="url(#Elipse_11661)">
        <circle id="Elipse_11661-2" data-name="Elipse 11661" cx="59" cy="59" r="59" transform="translate(9 6)" fill="#fff"/>
      </g>
    </g>
    <g id="servicio-al-cliente" transform="translate(401.424 3831.607)">
      <path id="Trazado_917120" data-name="Trazado 917120" d="M44.607,256H65.337a4.607,4.607,0,0,1,4.607,4.607V287.1H42.3a2.3,2.3,0,0,1-2.3-2.3V260.607A4.607,4.607,0,0,1,44.607,256Z" transform="translate(-36.545 -223.753)" fill="#2d85cc"/>
      <path id="Trazado_917121" data-name="Trazado 917121" d="M120,256l3.455,6.91L126.91,256Z" transform="translate(-105.028 -223.753)" fill="#960e35"/>
      <path id="Trazado_917122" data-name="Trazado 917122" d="M56.248,144H26.3a2.3,2.3,0,0,0-2.3,2.3v4.607a2.3,2.3,0,0,0,2.3,2.3H56.248a2.3,2.3,0,0,0,2.3-2.3V146.3A2.3,2.3,0,0,0,56.248,144Z" transform="translate(-22.848 -127.877)" fill="#eb423f"/>
      <rect id="Rect치ngulo_406378" data-name="Rect치ngulo 406378" width="36.959" height="25.163" rx="12.582" transform="translate(31.01 31.454)" fill="#dadcde"/>
      <path id="Trazado_917123" data-name="Trazado 917123" d="M268.854,391.09v2.146a2.591,2.591,0,0,1-2.591,2.591H234.591A2.591,2.591,0,0,1,232,393.236v-2.015Z" transform="translate(-200.904 -339.395)" fill="#9aa3a8"/>
      <path id="Trazado_917124" data-name="Trazado 917124" d="M333.82,362.427H320L321.152,344h11.517Z" transform="translate(-276.235 -299.084)" fill="#757c80"/>
      <path id="Trazado_917125" data-name="Trazado 917125" d="M216,424h4.607a2.3,2.3,0,0,1,2.3,2.3v2.3a2.3,2.3,0,0,1-2.3,2.3H216Z" transform="translate(-187.207 -367.567)" fill="#f7cca9"/>
      <rect id="Rect치ngulo_406379" data-name="Rect치ngulo 406379" width="20.445" height="25.163" rx="10.223" transform="translate(8.206 7.077)" fill="#f7cca9"/>
      <g id="Grupo_1127910" data-name="Grupo 1127910" transform="translate(8.062 6.909)">
        <path id="Trazado_917126" data-name="Trazado 917126" d="M154.364,90.3a9.455,9.455,0,0,1-1.15.071A9.214,9.214,0,0,1,144,81.16a9.457,9.457,0,0,1,.071-1.15A10.362,10.362,0,0,1,154.364,90.3Z" transform="translate(-133.635 -80.008)" fill="#452d23"/>
        <circle id="Elipse_12837" data-name="Elipse 12837" cx="1.18" cy="1.18" r="1.18" transform="translate(15.085 12.75)" fill="#452d23"/>
        <circle id="Elipse_12838" data-name="Elipse 12838" cx="1.18" cy="1.18" r="1.18" transform="translate(3.289 12.75)" fill="#452d23"/>
        <path id="Trazado_917127" data-name="Trazado 917127" d="M131.455,172.607h-2.3A1.152,1.152,0,0,1,128,171.455v-2.3a1.152,1.152,0,0,1,2.3,0V170.3h1.152a1.152,1.152,0,0,1,0,2.3Z" transform="translate(-119.938 -155.331)" fill="#452d23"/>
        <path id="Trazado_917128" data-name="Trazado 917128" d="M89.694,83.034l-.419.419A26.435,26.435,0,0,1,72,90.363a10.364,10.364,0,0,1,17.4-7.611c.1.092.2.186.3.282Z" transform="translate(-72 -79.997)" fill="#452d23"/>
        <path id="Trazado_917129" data-name="Trazado 917129" d="M115.393,201.673h0a1.151,1.151,0,1,0-2.059-1.029h0l.008-.014a4.661,4.661,0,0,1-7.169,0l.008.014h0a1.151,1.151,0,1,0-2.059,1.029h0l.014.027.007.013a6.888,6.888,0,0,0,11.233,0l.007-.013Z" transform="translate(-99.391 -182.73)" fill="#452d23"/>
      </g>
      <circle id="Elipse_12839" data-name="Elipse 12839" cx="1.18" cy="1.18" r="1.18" transform="translate(23.147 19.659)"/>
      <circle id="Elipse_12840" data-name="Elipse 12840" cx="1.18" cy="1.18" r="1.18" transform="translate(11.351 19.659)"/>
      <path id="Trazado_917130" data-name="Trazado 917130" d="M131.455,170.3H130.3v-1.152a1.152,1.152,0,0,0-2.3,0v2.3a1.152,1.152,0,0,0,1.152,1.152h2.3a1.152,1.152,0,0,0,0-2.3Z" transform="translate(-111.876 -148.421)"/>
      <path id="Trazado_917131" data-name="Trazado 917131" d="M18.961,58.455a16.07,16.07,0,0,0,2.635,5.2,5.765,5.765,0,0,0-3.293,5.2V93.042A3.459,3.459,0,0,0,21.759,96.5H49.4a3.459,3.459,0,0,0,3.455-3.455v-2.3a3.439,3.439,0,0,0-.2-1.152h6.314l-.355,5.687A1.152,1.152,0,0,0,59.765,96.5h13.82a1.152,1.152,0,0,0,1.149-1.224l-.355-5.687h6.98A3.747,3.747,0,0,0,85.1,85.844V65.689a3.747,3.747,0,0,0-3.743-3.743H49.687a3.739,3.739,0,0,0-2.98,1.481,5.768,5.768,0,0,0-1.915-.329h-3.52a11.853,11.853,0,0,0,3.662-4.607H49.4a3.459,3.459,0,0,0,3.455-3.455V50.429a3.461,3.461,0,0,0-2.333-3.267,16.123,16.123,0,0,0-32.188,0A3.461,3.461,0,0,0,16,50.429v4.607a3.46,3.46,0,0,0,2.961,3.419Zm2.432.036H23.92A11.853,11.853,0,0,0,27.582,63.1H24.123a13.782,13.782,0,0,1-2.73-4.607Zm39.6,35.7L62,78.07h9.353l1.008,16.124ZM82.8,85.844a1.441,1.441,0,0,1-1.44,1.44H74.235l-.144-2.3H82.8ZM48.248,65.689a1.441,1.441,0,0,1,1.44-1.44H81.359a1.441,1.441,0,0,1,1.44,1.44V82.677H73.947l-.365-5.83a1.152,1.152,0,0,0-1.149-1.08H60.916a1.152,1.152,0,0,0-1.149,1.08L59.4,82.677H48.248Zm0,19.291H59.259l-.144,2.3H49.687a1.441,1.441,0,0,1-1.44-1.44ZM49.4,89.587a1.153,1.153,0,0,1,1.152,1.152v2.3A1.153,1.153,0,0,1,49.4,94.194H45.944V89.587ZM44.793,65.4a3.467,3.467,0,0,1,1.154.2c0,.03,0,.059,0,.089V85.844a3.72,3.72,0,0,0,.288,1.44H27.517V79.222a1.152,1.152,0,1,0-2.3,0v9.214a1.152,1.152,0,0,0,1.152,1.152H43.641v4.607H21.759a1.153,1.153,0,0,1-1.152-1.152V68.856A3.461,3.461,0,0,1,23.242,65.5a16.185,16.185,0,0,0,3.743,2.691,1.152,1.152,0,0,0,1.065-2.043,13.9,13.9,0,0,1-1.266-.747H30.26L33.4,71.675a1.152,1.152,0,0,0,2.06,0L38.594,65.4Zm-11.957,0h3.183l-1.592,3.183ZM43.641,53.74a9.369,9.369,0,0,1-2.706,6.595,9.045,9.045,0,0,1-13.014,0,9.369,9.369,0,0,1-2.706-6.595V49.25a26.46,26.46,0,0,0,11.215-3.162,11.041,11.041,0,0,0,7.213,3.146Zm-18.348-6.8a9.2,9.2,0,0,1,14.756-6.105A25.606,25.606,0,0,1,25.293,46.939Zm16.395-4.475a9.166,9.166,0,0,1,1.872,4.449,8.946,8.946,0,0,1-5.071-2.037A26.044,26.044,0,0,0,41.688,42.463Zm8.863,7.966v4.607A1.153,1.153,0,0,1,49.4,56.188H45.685a11.73,11.73,0,0,0,.259-2.447V49.277H49.4A1.153,1.153,0,0,1,50.551,50.429ZM34.427,34.305A13.839,13.839,0,0,1,48.2,46.974H45.887a11.517,11.517,0,0,0-22.919,0H20.655A13.839,13.839,0,0,1,34.427,34.305ZM18.3,50.429a1.153,1.153,0,0,1,1.152-1.152H22.91V53.74a11.73,11.73,0,0,0,.26,2.447H19.455A1.153,1.153,0,0,1,18.3,55.036Z" transform="translate(-16 -32.002)"/>
      <path id="Trazado_917132" data-name="Trazado 917132" d="M106.175,200.619l.008.014h0a1.151,1.151,0,0,0-2.059,1.029h0l.014.027.007.013a6.887,6.887,0,0,0,11.232,0l.007-.013.014-.027h0a1.151,1.151,0,1,0-2.059-1.029h0l.008-.014a4.66,4.66,0,0,1-7.169,0Z" transform="translate(-91.332 -175.812)"/>
    </g>
  </g>
</svg>
