<svg xmlns="http://www.w3.org/2000/svg" xmlns:xlink="http://www.w3.org/1999/xlink" width="136" height="136" viewBox="0 0 136 136">
  <defs>
    <filter id="Elipse_12618" x="0" y="0" width="136" height="136" filterUnits="userSpaceOnUse">
      <feOffset dy="3" input="SourceAlpha"/>
      <feGaussianBlur stdDeviation="3" result="blur"/>
      <feFlood flood-opacity="0.161"/>
      <feComposite operator="in" in2="blur"/>
      <feComposite in="SourceGraphic"/>
    </filter>
  </defs>
  <g id="Grupo_1128195" data-name="Grupo 1128195" transform="translate(-1037.809 -3802.615)">
    <g id="Grupo_1112318" data-name="Grupo 1112318" transform="translate(-7.768 -1768.385)">
      <g transform="matrix(1, 0, 0, 1, 1045.58, 5571)" filter="url(#Elipse_12618)">
        <circle id="Elipse_12618-2" data-name="Elipse 12618" cx="59" cy="59" r="59" transform="translate(9 6)" fill="#fff"/>
      </g>
    </g>
    <g id="megafono" transform="translate(1062.475 3832.094)">
      <path id="Trazado_917101" data-name="Trazado 917101" d="M356.91,8.843H338.454a2.447,2.447,0,0,0-2.447,2.447v9.626a2.447,2.447,0,0,0,2.447,2.447h1.41l.034,5.817a.774.774,0,0,0,1.382.476l4.972-6.293H356.91a2.447,2.447,0,0,0,2.447-2.446V11.289a2.446,2.446,0,0,0-2.447-2.446Z" transform="translate(-289.446 -7.804)" fill="#6bdae8"/>
      <path id="Trazado_917102" data-name="Trazado 917102" d="M363.93,115.868l.021,3.571a.774.774,0,0,0,1.382.476l4.972-6.293h-3.6a2.057,2.057,0,0,0-1.614.782Z" transform="translate(-313.499 -98.062)" fill="#00c8de"/>
      <path id="Trazado_917103" data-name="Trazado 917103" d="M458.252,8.843h-4.6A2.447,2.447,0,0,1,456.1,11.29v9.626a2.446,2.446,0,0,1-2.447,2.447h4.6a2.446,2.446,0,0,0,2.446-2.447V11.289A2.446,2.446,0,0,0,458.252,8.843Z" transform="translate(-390.788 -7.804)" fill="#00c8de"/>
      <path id="Trazado_917104" data-name="Trazado 917104" d="M356.91,371.94H338.454a2.447,2.447,0,0,1-2.447-2.447v-9.626a2.447,2.447,0,0,1,2.447-2.447h1.41l.034-5.817a.774.774,0,0,1,1.382-.476l4.972,6.293H356.91a2.447,2.447,0,0,1,2.447,2.447v9.626A2.446,2.446,0,0,1,356.91,371.94Z" transform="translate(-289.446 -302.402)" fill="#ffc265"/>
      <path id="Trazado_917105" data-name="Trazado 917105" d="M458.253,398.38h-4.6a2.446,2.446,0,0,1,2.446,2.447v9.626a2.447,2.447,0,0,1-2.446,2.447h4.6a2.447,2.447,0,0,0,2.447-2.447v-9.626A2.446,2.446,0,0,0,458.253,398.38Z" transform="translate(-390.79 -343.361)" fill="#ffa812"/>
      <path id="Trazado_917106" data-name="Trazado 917106" d="M366.941,357.421H370.3l-4.972-6.293a.774.774,0,0,0-1.382.476l-.021,3.571,1.009,1.277A2.552,2.552,0,0,0,366.941,357.421Z" transform="translate(-313.499 -302.403)" fill="#ffa812"/>
      <path id="Trazado_917107" data-name="Trazado 917107" d="M279.457,219.294h-3.134v10.173h3.134a5.086,5.086,0,0,0,0-10.173Z" transform="translate(-238.032 -189.092)" fill="#ff4755"/>
      <path id="Trazado_917108" data-name="Trazado 917108" d="M63.42,311.121,61.3,303.2H54.456l2.576,9.632a3.136,3.136,0,0,0,3.839,2.219l.33-.088A3.136,3.136,0,0,0,63.42,311.121Z" transform="translate(-46.91 -261.368)" fill="#537983"/>
      <path id="Trazado_917109" data-name="Trazado 917109" d="M22.424,218.69H10.283A2.783,2.783,0,0,1,7.5,215.907v-8.739a2.783,2.783,0,0,1,2.783-2.783H22.424Z" transform="translate(-6.461 -176.249)" fill="#ff646f"/>
      <path id="Trazado_917110" data-name="Trazado 917110" d="M71.89,204.386h6v14.3h-6Z" transform="translate(-61.928 -176.25)" fill="#ff4755"/>
      <path id="Trazado_917111" data-name="Trazado 917111" d="M128.5,156.167l-23.416-11.815v-14.3L128.5,118.233a1.326,1.326,0,0,1,1.922,1.184v35.566A1.326,1.326,0,0,1,128.5,156.167Z" transform="translate(-90.521 -101.912)" fill="#fff5f5"/>
      <path id="Trazado_917112" data-name="Trazado 917112" d="M257.415,118.233l-2.678,1.351v35.232l2.678,1.351a1.326,1.326,0,0,0,1.922-1.184V119.417a1.326,1.326,0,0,0-1.922-1.184Z" transform="translate(-219.437 -101.912)" fill="#efe2dd"/>
      <path id="Trazado_917113" data-name="Trazado 917113" d="M374.9,37.28H359.982a1.039,1.039,0,0,0,0,2.079H374.9a1.039,1.039,0,1,0,0-2.079Z" transform="translate(-309.203 -32.3)"/>
      <path id="Trazado_917114" data-name="Trazado 917114" d="M367.438,72.482h-7.457a1.039,1.039,0,0,0,0,2.079h7.457a1.039,1.039,0,1,0,0-2.079Z" transform="translate(-309.202 -62.624)"/>
      <path id="Trazado_917115" data-name="Trazado 917115" d="M360.032,461.8h7.457a1.039,1.039,0,0,0,0-2.079h-7.457A1.039,1.039,0,0,0,360.032,461.8Z" transform="translate(-309.253 -396.201)"/>
      <path id="Trazado_917116" data-name="Trazado 917116" d="M360.032,426.6h14.914a1.039,1.039,0,0,0,0-2.079H360.032A1.039,1.039,0,0,0,360.032,426.6Z" transform="translate(-309.253 -365.877)"/>
      <path id="Trazado_917117" data-name="Trazado 917117" d="M350.449,1.343H331.994a3.49,3.49,0,0,0-3.486,3.486v9.627a3.49,3.49,0,0,0,3.486,3.486h.376l.028,4.784a1.814,1.814,0,0,0,3.237,1.114l4.66-5.9h10.155a3.49,3.49,0,0,0,3.486-3.486V4.829a3.49,3.49,0,0,0-3.486-3.486Zm1.407,13.112a1.409,1.409,0,0,1-1.407,1.407H339.791a1.039,1.039,0,0,0-.816.4l-4.5,5.7-.029-5.062a1.039,1.039,0,0,0-1.039-1.033h-1.41a1.409,1.409,0,0,1-1.407-1.407V4.829a1.409,1.409,0,0,1,1.407-1.407h18.455a1.409,1.409,0,0,1,1.407,1.407v9.627Z" transform="translate(-282.986 -1.343)"/>
      <path id="Trazado_917118" data-name="Trazado 917118" d="M350.449,349.909H340.294l-4.659-5.9a1.814,1.814,0,0,0-3.237,1.114l-.028,4.784h-.376a3.49,3.49,0,0,0-3.486,3.486v9.626a3.49,3.49,0,0,0,3.486,3.486h2.529a1.039,1.039,0,0,0,0-2.079h-2.529a1.409,1.409,0,0,1-1.407-1.407v-9.626a1.409,1.409,0,0,1,1.407-1.407h1.41a1.039,1.039,0,0,0,1.039-1.033l.029-5.062,4.5,5.7c.567.719.622.255,11.474.4a1.409,1.409,0,0,1,1.407,1.407v9.627a1.409,1.409,0,0,1-1.407,1.407H338.683a1.039,1.039,0,0,0,0,2.079h11.766a3.49,3.49,0,0,0,3.486-3.486v-9.627A3.49,3.49,0,0,0,350.449,349.909Z" transform="translate(-282.986 -295.93)"/>
      <path id="Trazado_917119" data-name="Trazado 917119" d="M47.551,130.732a6.133,6.133,0,0,0-6.126-6.126h-.487V112.949a2.365,2.365,0,0,0-3.429-2.112l-15.951,8.049a1.039,1.039,0,0,0,.936,1.856l15.95-8.048a.286.286,0,0,1,.415.256v35.566a.286.286,0,0,1-.414.256L15.6,137.245V124.22l3.162-1.6a1.039,1.039,0,0,0-.936-1.856l-3.512,1.772H3.822A3.826,3.826,0,0,0,0,126.362V135.1a3.826,3.826,0,0,0,3.822,3.822h3.09l2.206,8.249c1.425,5.328,9.848,3.186,8.4-2.245l-1.357-5.074L37.51,150.628a2.365,2.365,0,0,0,3.428-2.113V136.858h.487A6.133,6.133,0,0,0,47.551,130.732ZM2.079,135.1v-8.739a1.745,1.745,0,0,1,1.743-1.743h9.7v12.226h-9.7A1.746,1.746,0,0,1,2.079,135.1Zm9.047,11.534-2.062-7.712h4.693l1.749,6.541c.722,2.7-3.654,3.888-4.38,1.171Zm29.813-19.951h.487a4.047,4.047,0,1,1,0,8.094h-.487Z" transform="translate(0 -95.443)"/>
    </g>
  </g>
</svg>
