<svg xmlns="http://www.w3.org/2000/svg" width="190.051" height="76" viewBox="0 0 190.051 76">
  <g id="Grupo_1128068" data-name="Grupo 1128068" transform="translate(-285 -2273.071)">
    <rect id="Rectángulo_406389" data-name="Rectángulo 406389" width="190.051" height="76" transform="translate(285 2273.071)" fill="#f5fef9"/>
    <g id="trabajo-en-equipo" transform="translate(355.35 2281.918)">
      <path id="Trazado_917309" data-name="Trazado 917309" d="M373.159,389.227H359.07v12.709H375.1V391.171l-1.944-1.944Zm0,0" transform="translate(-319.482 -346.314)" fill="#ffe477"/>
      <path id="Trazado_917310" data-name="Trazado 917310" d="M426.614,397.906h1.251l1.162-1.56-.683-7.119h-2.208l-.683,7.119Zm0,0" transform="translate(-378.546 -346.314)" fill="#ffb655"/>
      <path id="Trazado_917311" data-name="Trazado 917311" d="M9.448,389.227h14.09v12.709H7.5V391.171l1.944-1.944Zm0,0" transform="translate(-6.676 -346.314)" fill="#7c84e8"/>
      <path id="Trazado_917312" data-name="Trazado 917312" d="M96.542,397.906H95.291l-1.162-1.56.683-7.119H97.02l.683,7.119Zm0,0" transform="translate(-83.751 -346.314)" fill="#515be0"/>
      <path id="Trazado_917313" data-name="Trazado 917313" d="M214.458,235.54v4.921l-3.69,3.69H206.4l-3.69-3.69V235.54a5.876,5.876,0,1,1,11.751,0Zm0,0" transform="translate(-180.358 -204.343)" fill="#ffdaaa"/>
      <path id="Trazado_917314" data-name="Trazado 917314" d="M175.66,376.876V363.482l-2.42-2.419H155.352l-2.419,2.419v13.395Zm0,0" transform="translate(-136.072 -321.255)" fill="#787680"/>
      <path id="Trazado_917315" data-name="Trazado 917315" d="M227.651,373.236h-1.556l-5.309-12.174H232.96Zm0,0" transform="translate(-196.443 -321.255)" fill="#57565c"/>
      <path id="Trazado_917316" data-name="Trazado 917316" d="M207.651,373.236h-1.556l-5.309-12.174H212.96Zm0,0" transform="translate(-178.648 -321.255)" fill="#fff"/>
      <path id="Trazado_917317" data-name="Trazado 917317" d="M237.27,373.236h1.556l1.446-3.315-.85-8.859h-2.748l-.85,8.859Zm0,0" transform="translate(-209.825 -321.255)" fill="#ff7956"/>
      <path id="Trazado_917318" data-name="Trazado 917318" d="M388.28,288.351v3.955l-2.966,2.965H381.8l-2.965-2.965v-3.955a4.722,4.722,0,0,1,9.444,0Zm0,0" transform="translate(-337.069 -252.359)" fill="#ffdaaa"/>
      <path id="Trazado_917319" data-name="Trazado 917319" d="M406.614,397.906h1.251l1.162-1.56-.683-7.119h-2.208l-.683,7.119Zm0,0" transform="translate(-360.751 -346.314)" fill="#d7fc7e"/>
      <path id="Trazado_917320" data-name="Trazado 917320" d="M56.948,288.351v3.955l-2.965,2.965H50.469L47.5,292.306v-3.955a4.722,4.722,0,0,1,9.444,0Zm0,0" transform="translate(-42.266 -252.359)" fill="#ffdaaa"/>
      <path id="Trazado_917321" data-name="Trazado 917321" d="M76.541,397.906H75.29l-1.162-1.56.683-7.119H77.02l.683,7.119Zm0,0" transform="translate(-65.956 -346.314)" fill="#ffb655"/>
      <path id="Trazado_917322" data-name="Trazado 917322" d="M54.6,29.619A20.265,20.265,0,0,0,52.563,24.7l4.54-6.339-5.665-5.665L45.1,17.231a20.264,20.264,0,0,0-4.923-2.041L38.9,7.5H30.891l-1.272,7.69A20.265,20.265,0,0,0,24.7,17.231l-6.339-4.54-5.665,5.665,4.54,6.339a20.264,20.264,0,0,0-2.041,4.923L7.5,30.891V38.9l5.384.891a4.722,4.722,0,0,1,8.471,2.872V46.62l-2.965,2.965h5.144V48.9l2.419-2.419h6.758l-3.69-3.69V42.2a9.371,9.371,0,1,1,11.751,0v.593l-3.69,3.69h6.758L46.261,48.9v.686h5.144L48.44,46.62V42.665a4.722,4.722,0,0,1,8.471-2.872l5.383-.891V30.891Zm0,0" transform="translate(-6.673 -6.673)" fill="#c6c5ca"/>
      <path id="Trazado_917323" data-name="Trazado 917323" d="M282.825,276.26a5.935,5.935,0,0,0-.058-.83,9.375,9.375,0,0,1-3.249,5.159v.593l-3.69,3.69h3.308l3.69-3.69Zm0,0" transform="translate(-245.418 -245.063)" fill="#898890"/>
      <path id="Trazado_917324" data-name="Trazado 917324" d="M359.07,389.227h3.308v12.709H359.07Zm0,0" transform="translate(-319.482 -346.314)" fill="#ffb655"/>
      <path id="Trazado_917325" data-name="Trazado 917325" d="M12.755,389.227H9.448L7.5,391.171v10.765h3.308V391.171Zm0,0" transform="translate(-6.676 -346.314)" fill="#515be0"/>
      <path id="Trazado_917326" data-name="Trazado 917326" d="M206.015,240.461V235.54a5.879,5.879,0,0,1,4.222-5.64,5.88,5.88,0,0,0-7.529,5.64v4.921l3.69,3.69H209.7l-3.69-3.69Zm0,0" transform="translate(-180.358 -204.344)" fill="#ffbb85"/>
      <path id="Trazado_917327" data-name="Trazado 917327" d="M202.99,361.063h-2.205l5.309,12.174h1.556l.324-.743Zm0,0" transform="translate(-178.648 -321.255)" fill="#d8d7da"/>
      <path id="Trazado_917328" data-name="Trazado 917328" d="M238.029,369.921l.85-8.859h-2.205l-.85,8.859,1.446,3.315h1.556l.324-.743Zm0,0" transform="translate(-209.824 -321.255)" fill="#ff5023"/>
      <path id="Trazado_917329" data-name="Trazado 917329" d="M382.144,292.305v-3.955a4.724,4.724,0,0,1,3.068-4.424,4.725,4.725,0,0,0-6.376,4.424v3.955l2.965,2.966h3.308Zm0,0" transform="translate(-337.069 -252.358)" fill="#ffbb85"/>
      <path id="Trazado_917330" data-name="Trazado 917330" d="M50.811,292.305v-3.955a4.724,4.724,0,0,1,3.069-4.424,4.726,4.726,0,0,0-6.376,4.424v3.955l2.966,2.966h3.307Zm0,0" transform="translate(-42.266 -252.358)" fill="#ffbb85"/>
      <path id="Trazado_917331" data-name="Trazado 917331" d="M158.66,361.063h-3.308l-2.419,2.419v13.395h3.308V363.482Zm0,0" transform="translate(-136.072 -321.255)" fill="#57565c"/>
      <g id="Grupo_1128067" data-name="Grupo 1128067" transform="translate(0.827 0.827)">
        <path id="Trazado_917332" data-name="Trazado 917332" d="M182.375,17.231A20.264,20.264,0,0,1,187.3,15.19l1.272-7.69h-3.308l-1.272,7.69A20.238,20.238,0,0,0,181,16.247Zm0,0" transform="translate(-161.872 -7.5)" fill="#898890"/>
        <path id="Trazado_917333" data-name="Trazado 917333" d="M362.928,59.133l4.412-3.159-1.38-1.38L361,58.148A20.351,20.351,0,0,1,362.928,59.133Zm0,0" transform="translate(-322.022 -49.402)" fill="#898890"/>
        <path id="Trazado_917334" data-name="Trazado 917334" d="M111.708,292.306v-3.955a4.726,4.726,0,0,0-6.376-4.424,4.724,4.724,0,0,1,3.069,4.425v3.954l-2.965,2.966h3.308Zm0,0" transform="translate(-94.546 -253.185)" fill="#898890"/>
        <path id="Trazado_917335" data-name="Trazado 917335" d="M10.808,80.8V72.789l7.69-1.272a20.265,20.265,0,0,1,2.041-4.923L16,60.255l4.285-4.285-1.928-1.38-5.665,5.665,4.54,6.339a20.264,20.264,0,0,0-2.041,4.923L7.5,72.789V80.8l5.384.891a4.764,4.764,0,0,1,.42-.478Zm0,0" transform="translate(-7.5 -49.398)" fill="#898890"/>
        <path id="Trazado_917336" data-name="Trazado 917336" d="M438.321,283.629a4.708,4.708,0,0,0-1.653.3,4.735,4.735,0,0,1,2.095,1.553L441.65,285A4.706,4.706,0,0,0,438.321,283.629Zm0,0" transform="translate(-389.352 -253.185)" fill="#898890"/>
        <path id="Trazado_917337" data-name="Trazado 917337" d="M340.433,361.063h-3.308l2.419,2.419v.686h3.307v-.686Zm0,0" transform="translate(-300.783 -322.082)" fill="#898890"/>
      </g>
      <path id="Trazado_917338" data-name="Trazado 917338" d="M161.806,236.651l2.52-2.521v-5.263a6.7,6.7,0,1,0-13.4,0v5.263l2.52,2.521h-5.1l-2.9,2.9v14.564h24.381V239.555l-2.9-2.9Zm.642,1.654-2.082,4.775-.458-4.775Zm-6.2,7.9.758-7.9h1.245l.758,7.9-1.143,2.622h-.474Zm-3.668-17.335a5.049,5.049,0,1,1,10.1,0v4.578l-3.205,3.205H155.78l-3.205-3.205v-4.578Zm2.764,9.438-.458,4.775-2.082-4.775Zm12.821,14.16h-3.356v-8.517h-1.654v8.517H152.1v-8.517h-1.654v8.517h-3.356V240.24l1.935-1.935H151l5.308,12.174h2.64l5.309-12.174h1.974l1.935,1.935v12.225Zm0,0" transform="translate(-129.399 -197.671)"/>
      <path id="Trazado_917339" data-name="Trazado 917339" d="M380.638,287.768l1.8-1.8v-4.3a5.549,5.549,0,1,0-11.1,0v4.3l1.8,1.8h-.943v1.654h2.682l-.627,6.531,1.6,2.149h2.081l1.6-2.149-.627-6.531h4.832l1.46,1.46v9.6h-2.923v-6.682h-1.654v6.682h-7.457v-6.682H371.5v8.336h15.341V290.2l-2.429-2.429h-3.777Zm-7.648-6.093a3.9,3.9,0,0,1,7.79,0v3.612l-2.481,2.481H375.47l-2.481-2.481Zm4.829,13.8-.724.972h-.421l-.724-.972.581-6.054h.706Zm0,0" transform="translate(-330.396 -245.682)"/>
      <path id="Trazado_917340" data-name="Trazado 917340" d="M9.963,276.129a5.555,5.555,0,0,0-5.549,5.549v4.3l1.8,1.8H2.433L0,290.2v11.934H15.345V293.8H13.691v6.682H6.235V293.8H4.581v6.682H1.658v-9.6l1.46-1.46H7.949l-.627,6.531,1.6,2.149H11l1.6-2.149-.627-6.531H14.66v-1.654h-.944l1.8-1.8v-4.3a5.555,5.555,0,0,0-5.549-5.549Zm.934,19.35-.724.972H9.753l-.723-.972.581-6.054h.706Zm2.961-10.189-2.481,2.481H8.549L6.068,285.29v-3.612a3.9,3.9,0,1,1,7.79,0Zm0,0" transform="translate(-0.003 -245.685)"/>
      <path id="Trazado_917341" data-name="Trazado 917341" d="M31.529,1.654l1.245,7.525a19.788,19.788,0,0,1,5.7,2.363l6.2-4.441,4.673,4.673-4.441,6.2a19.784,19.784,0,0,1,2.363,5.7L54.8,24.92v6.609l-2.331.386.27,1.631,3.715-.615V23.517l-7.864-1.3a21.092,21.092,0,0,0-1.716-4.139l4.642-6.482L44.854,4.938,38.372,9.58a21.118,21.118,0,0,0-4.139-1.716L32.932,0H23.517l-1.3,7.864a21.143,21.143,0,0,0-4.139,1.716L11.6,4.938,4.939,11.595,9.58,18.076a21.133,21.133,0,0,0-1.716,4.14L0,23.517v9.414l3.715.615.27-1.631-2.331-.386V24.92l7.525-1.245a19.784,19.784,0,0,1,2.363-5.7L7.1,11.773,11.773,7.1l6.2,4.441a19.789,19.789,0,0,1,5.7-2.363L24.92,1.654Zm0,0"/>
      <path id="Trazado_917342" data-name="Trazado 917342" d="M182.492,178.866a10.2,10.2,0,1,0-17.587,0l1.425-.839a8.545,8.545,0,1,1,14.737,0Zm0,0" transform="translate(-145.474 -145.474)"/>
      <path id="Trazado_917343" data-name="Trazado 917343" d="M422.862,308.7l-1.169-1.169,1.106-1.106h1.654v.685Zm1.591-3.417H422.8v-1.328a1.134,1.134,0,0,0-.016-.188l1.631-.273a2.79,2.79,0,0,1,.038.461Zm-1.942-2.082a1.138,1.138,0,0,0-.847-.38v-1.654a2.793,2.793,0,0,1,2.081.933Zm0,0" transform="translate(-375.175 -267.96)" fill="#fff"/>
      <path id="Trazado_917344" data-name="Trazado 917344" d="M257.628,257.549l-1.169-1.169,1.833-1.833v-2.825h1.654v3.51Zm.636-6.8a2.281,2.281,0,0,0-.493-1.093l1.277-1.05a3.94,3.94,0,0,1,.849,1.886Zm-1.107-1.619a2.287,2.287,0,0,0-1.158-.314v-1.654a3.942,3.942,0,0,1,2,.543Zm0,0" transform="translate(-227.775 -219.914)" fill="#fff"/>
      <path id="Trazado_917345" data-name="Trazado 917345" d="M91.534,308.7l-1.17-1.169,1.106-1.106h1.654v.685Zm1.59-3.417H91.471v-1.328a1.132,1.132,0,0,0-.016-.188l1.631-.273a2.835,2.835,0,0,1,.038.461ZM91.183,303.2a1.137,1.137,0,0,0-.847-.38v-1.654a2.793,2.793,0,0,1,2.081.933Zm0,0" transform="translate(-80.376 -267.96)" fill="#fff"/>
      <path id="Trazado_917346" data-name="Trazado 917346" d="M272.813,106.967a16.778,16.778,0,0,0-11.647-16l.509-1.573a18.5,18.5,0,0,1,12.791,17.575ZM260.158,90.674c-.506-.129-1.025-.236-1.543-.317l.257-1.634c.568.089,1.138.206,1.695.348Zm-2.584-.447c-.52-.048-1.05-.073-1.574-.073V88.5c.575,0,1.156.027,1.727.08Zm0,0" transform="translate(-227.776 -78.743)" fill="#fff"/>
    </g>
  </g>
</svg>
