<svg xmlns="http://www.w3.org/2000/svg" xmlns:xlink="http://www.w3.org/1999/xlink" width="136" height="136" viewBox="0 0 136 136">
  <defs>
    <filter id="Elipse_12618" x="0" y="0" width="136" height="136" filterUnits="userSpaceOnUse">
      <feOffset dy="3" input="SourceAlpha"/>
      <feGaussianBlur stdDeviation="3" result="blur"/>
      <feFlood flood-opacity="0.161"/>
      <feComposite operator="in" in2="blur"/>
      <feComposite in="SourceGraphic"/>
    </filter>
  </defs>
  <g id="Grupo_1128194" data-name="Grupo 1128194" transform="translate(-682.975 -3802.616)">
    <g id="Grupo_1112317" data-name="Grupo 1112317" transform="translate(-98.025 -1769.047)">
      <g transform="matrix(1, 0, 0, 1, 781, 5571.66)" filter="url(#Elipse_12618)">
        <circle id="Elipse_12618-2" data-name="Elipse 12618" cx="59" cy="59" r="59" transform="translate(9 6)" fill="#fff"/>
      </g>
    </g>
    <g id="atencion-al-cliente" transform="translate(699.82 3814.206)">
      <path id="Trazado_917093" data-name="Trazado 917093" d="M0,0H13.153V20.97H0Z" transform="translate(73.162 56.481) rotate(19.141)" fill="#9fd4fe"/>
      <path id="Trazado_917094" data-name="Trazado 917094" d="M72.036,68.584,68.374,79.105H33.819a4.072,4.072,0,0,1-3.228-1.581L18.254,61.556A4.96,4.96,0,1,1,26.034,55.4l6.506,7.978,2.573,3.154.007.007a3.988,3.988,0,0,1,3.985-3.985H47.4a4.186,4.186,0,0,0,2.353-.721l1.382-.934a1.751,1.751,0,0,1,.97-.294h7.58a3.551,3.551,0,0,1,2.044.647Z" transform="translate(-0.45 -7.695)" fill="#ffc4b7"/>
      <circle id="Elipse_12834" data-name="Elipse 12834" cx="5.324" cy="5.324" r="5.324" transform="translate(42.218 33.506) rotate(-58.201)" fill="#fdb0a0"/>
      <path id="Trazado_917095" data-name="Trazado 917095" d="M58.406,41.65a9.422,9.422,0,0,1,9.419,9.422v3.095H48.982V51.072a9.422,9.422,0,0,1,9.424-9.422Z" transform="translate(-8.869 -4.553)" fill="#b2e59f"/>
      <circle id="Elipse_12835" data-name="Elipse 12835" cx="5.324" cy="5.324" r="5.324" transform="matrix(0.229, -0.973, 0.973, 0.229, 58.808, 35.759)" fill="#fdb0a0"/>
      <path id="Trazado_917096" data-name="Trazado 917096" d="M79.738,41.65a9.422,9.422,0,0,0-9.422,9.422v3.094H89.159V51.072a9.422,9.422,0,0,0-9.421-9.422Z" transform="translate(-14.518 -4.553)" fill="#ff8086"/>
      <circle id="Elipse_12836" data-name="Elipse 12836" cx="5.324" cy="5.324" r="5.324" transform="matrix(0.229, -0.973, 0.973, 0.229, 28.379, 35.747)" fill="#fdb0a0"/>
      <path id="Trazado_917097" data-name="Trazado 917097" d="M38.348,41.65a9.422,9.422,0,0,0-9.421,9.421v3.095H47.77V51.072A9.422,9.422,0,0,0,38.348,41.65Z" transform="translate(-3.559 -4.553)" fill="#89cafe"/>
      <g id="Grupo_1127909" data-name="Grupo 1127909" transform="translate(15.485 25.146)">
        <path id="Trazado_917098" data-name="Trazado 917098" d="M109.913,72.326a1.288,1.288,0,0,0-.735-.655l-4.308-1.5a1.287,1.287,0,1,0-.846,2.431l3.092,1.076-.5,1.424a1.287,1.287,0,1,0,2.426.847l.919-2.639a1.287,1.287,0,0,0-.053-.984Z" transform="translate(-38.699 -37.231)"/>
        <path id="Trazado_917099" data-name="Trazado 917099" d="M83.464,67.032a1.284,1.284,0,0,0-1.637.793l-3.97,11.4-9.992-3.473,6.045-17.376,2.366.821a1.286,1.286,0,1,0,.843-2.431l-3.581-1.243a1.286,1.286,0,0,0-1.637.793l-.968,2.782-8.914-6.338a4.812,4.812,0,0,0-2.784-.882c-7.12.147-7.957-.364-9.27.515-1.087.642-1.691,1.434-3.014,1.434H38.656a5.274,5.274,0,0,0-4.527,2.573l-4.282-5.249h44.8a1.287,1.287,0,0,0,1.287-1.287v-3.1a10.714,10.714,0,0,0-6.364-9.778,6.61,6.61,0,1,0-8.7-.006,10.6,10.6,0,0,0-3.487,2.5,10.7,10.7,0,0,0-3.491-2.5,6.61,6.61,0,1,0-8.7,0,10.606,10.606,0,0,0-3.024,2.027,10.6,10.6,0,0,0-3.025-2.027,6.61,6.61,0,1,0-8.695,0,10.721,10.721,0,0,0-6.249,8.35,6.244,6.244,0,0,0-7.4,9.558L25.841,66.6a1.287,1.287,0,0,0,2.037-1.573L18.823,53.323a3.672,3.672,0,0,1,5.6-4.741c.057.062.115.125.165.186L33.408,59.58a5.277,5.277,0,0,0,5.247,4.785H51.8a1.287,1.287,0,0,0,0-2.573H38.656a2.7,2.7,0,0,1,0-5.4h8.293c2.326,0,3.486-1.331,4.45-1.871.221-.147-.07-.049,7.836-.077a2.251,2.251,0,0,1,1.3.409l9.517,6.769-3.042,8.749H38.384a1.287,1.287,0,0,0,0,2.573H66.115l-1.1,3.172a1.287,1.287,0,0,0,.793,1.638L78.23,82.074a1.287,1.287,0,0,0,1.637-.793l4.389-12.609a1.286,1.286,0,0,0-.793-1.64ZM61.183,32.023a4.037,4.037,0,1,1,4.044,4.036h-.008a4.044,4.044,0,0,1-4.036-4.036Zm4.033,6.61h.007a8.144,8.144,0,0,1,8.135,8.132v1.809H57.088V46.764a8.136,8.136,0,0,1,8.129-8.132ZM45.5,32.023a4.037,4.037,0,1,1,4.044,4.036h-.007A4.044,4.044,0,0,1,45.5,32.023Zm4.039,6.61a8.116,8.116,0,0,1,6.293,3,10.617,10.617,0,0,0-1.315,5.13v1.809H45.5V46.764A10.557,10.557,0,0,0,43.8,41a8.078,8.078,0,0,1,5.73-2.363Zm-18.784-6.61a4.037,4.037,0,1,1,4.039,4.036h-.007A4.044,4.044,0,0,1,30.753,32.023Zm4.033,6.61h.007a8.135,8.135,0,0,1,8.135,8.132v1.809H27.747l-1.09-1.338v-.471A8.141,8.141,0,0,1,34.785,38.633Z" transform="translate(-15.485 -25.394)"/>
        <path id="Trazado_917100" data-name="Trazado 917100" d="M38.28,85.847h-.213a2.767,2.767,0,0,1-2.206-1.079l-.346-.448a1.287,1.287,0,0,0-2.04,1.57l.347.449a5.324,5.324,0,0,0,4.244,2.081h.213a1.287,1.287,0,1,0,0-2.573Z" transform="translate(-20.183 -40.87)"/>
      </g>
    </g>
  </g>
</svg>
