<svg xmlns="http://www.w3.org/2000/svg" xmlns:xlink="http://www.w3.org/1999/xlink" width="190" height="212" viewBox="0 0 190 212">
  <defs>
    <clipPath id="clip-path">
      <rect id="Rectángulo_406583" data-name="Rectángulo 406583" width="190" height="212" transform="translate(180.051 863.538)" fill="#f6edfb"/>
    </clipPath>
    <clipPath id="clip-path-2">
      <rect id="Rectángulo_406582" data-name="Rectángulo 406582" width="271.102" height="180.082" fill="none"/>
    </clipPath>
  </defs>
  <g id="Enmascarar_grupo_1113712" data-name="Enmascarar grupo 1113712" transform="translate(-180.051 -863.538)" clip-path="url(#clip-path)">
    <g id="Grupo_1128086" data-name="Grupo 1128086" transform="translate(138 879.497)">
      <g id="Grupo_1128085" data-name="Grupo 1128085" transform="translate(0 0)" clip-path="url(#clip-path-2)">
        <path id="Trazado_917461" data-name="Trazado 917461" d="M92.361,11.256H33.382c-7.1,0-12.872,5.272-12.872,11.75V162.869c0,6.48,5.774,11.749,12.872,11.749H92.361c7.1,0,12.87-5.269,12.87-11.749V23.006c0-6.478-5.774-11.75-12.87-11.75" transform="translate(9.957 5.464)" fill="#29304a"/>
        <path id="Trazado_917462" data-name="Trazado 917462" d="M89.182,13.1H34.41c-6.591,0-11.954,5.08-11.954,11.319v135.24c0,6.242,5.363,11.316,11.954,11.316H89.182c6.588,0,11.949-5.074,11.949-11.316V24.422c0-6.239-5.361-11.319-11.949-11.319" transform="translate(10.902 6.361)" fill="#222a3f"/>
        <path id="Trazado_917463" data-name="Trazado 917463" d="M28.442,144.274H92.1a3.037,3.037,0,0,0,3.131-2.934V28.906A3.035,3.035,0,0,0,92.1,25.978H28.442a3.035,3.035,0,0,0-3.127,2.928V141.34a3.038,3.038,0,0,0,3.127,2.934" transform="translate(12.29 12.612)" fill="#75ade8"/>
        <path id="Trazado_917464" data-name="Trazado 917464" d="M61.3,109.306H44.473a3.428,3.428,0,0,0-3.672,3.1v2.726a3.427,3.427,0,0,0,3.672,3.1H61.3a3.426,3.426,0,0,0,3.672-3.1v-2.726a3.427,3.427,0,0,0-3.672-3.1" transform="translate(19.808 53.065)" fill="#29304a"/>
        <path id="Trazado_917465" data-name="Trazado 917465" d="M64.316,18.1h-22.3a1.664,1.664,0,0,0-1.783,1.506v1.324a1.663,1.663,0,0,0,1.783,1.506h22.3A1.663,1.663,0,0,0,66.1,20.933V19.609A1.664,1.664,0,0,0,64.316,18.1" transform="translate(19.53 8.788)" fill="#29304a"/>
        <rect id="Rectángulo_406452" data-name="Rectángulo 406452" width="34.819" height="31.242" rx="1.003" transform="translate(44.657 74.147)" fill="#89c6f4"/>
        <rect id="Rectángulo_406453" data-name="Rectángulo 406453" width="15.761" height="31.242" rx="1.003" transform="translate(84.615 74.147)" fill="#89c6f4"/>
        <rect id="Rectángulo_406454" data-name="Rectángulo 406454" width="55.719" height="20.742" rx="1.003" transform="translate(44.657 111.441)" fill="#89c6f4"/>
        <path id="Trazado_917466" data-name="Trazado 917466" d="M177.528,11.256H118.551c-7.1,0-12.872,5.272-12.872,11.75V162.869c0,6.48,5.774,11.749,12.872,11.749h58.978c7.1,0,12.872-5.269,12.872-11.749V23.006c0-6.478-5.775-11.75-12.872-11.75" transform="translate(51.304 5.464)" fill="#29304a"/>
        <path id="Trazado_917467" data-name="Trazado 917467" d="M174.35,13.1H119.576c-6.59,0-11.952,5.08-11.952,11.319v135.24c0,6.242,5.363,11.316,11.952,11.316H174.35c6.59,0,11.949-5.074,11.949-11.316V24.422c0-6.239-5.36-11.319-11.949-11.319" transform="translate(52.248 6.361)" fill="#222a3f"/>
        <path id="Trazado_917468" data-name="Trazado 917468" d="M113.611,144.274h63.66a3.037,3.037,0,0,0,3.131-2.934V28.906a3.035,3.035,0,0,0-3.131-2.928h-63.66a3.035,3.035,0,0,0-3.127,2.928V141.34a3.038,3.038,0,0,0,3.127,2.934" transform="translate(53.637 12.612)" fill="#75ade8"/>
        <path id="Trazado_917469" data-name="Trazado 917469" d="M146.47,109.306H129.642a3.428,3.428,0,0,0-3.672,3.1v2.726a3.427,3.427,0,0,0,3.672,3.1H146.47a3.425,3.425,0,0,0,3.671-3.1v-2.726a3.426,3.426,0,0,0-3.671-3.1" transform="translate(61.155 53.065)" fill="#29304a"/>
        <path id="Trazado_917470" data-name="Trazado 917470" d="M149.484,18.1h-22.3a1.664,1.664,0,0,0-1.783,1.506v1.324a1.663,1.663,0,0,0,1.783,1.506h22.3a1.663,1.663,0,0,0,1.784-1.506V19.609a1.664,1.664,0,0,0-1.784-1.506" transform="translate(60.877 8.788)" fill="#29304a"/>
        <rect id="Rectángulo_406455" data-name="Rectángulo 406455" width="34.819" height="31.242" rx="1.003" transform="translate(191.995 74.147)" fill="#89c6f4"/>
        <rect id="Rectángulo_406456" data-name="Rectángulo 406456" width="15.759" height="31.242" rx="1.003" transform="translate(171.095 74.147)" fill="#89c6f4"/>
        <rect id="Rectángulo_406457" data-name="Rectángulo 406457" width="55.719" height="20.742" rx="1.003" transform="translate(171.095 111.441)" fill="#89c6f4"/>
        <path id="Trazado_917471" data-name="Trazado 917471" d="M101.458,86.261S82.564,91.42,80.666,97.293c0,0,6.979,16.709,12.433,25.544,3.439-.2,13.916-4.847,31.3-16.108l70.481-35.564V38.283Z" transform="translate(39.161 18.585)" fill="#d6986e"/>
        <path id="Trazado_917472" data-name="Trazado 917472" d="M77.314,70.994c4.767-1.181,17.848-5.63,20.063-5.287,4.544.7,5.4,3.475,9.672,4.883.778.256,2.213.575,2.533,1.612.349,1.142-.756,4.537-5.308,4.66-2.524.065-6.893-2.258-6.893-2.258l-3.635.927s-22.78-2.966-16.432-4.537" transform="translate(36.992 31.89)" fill="#e4aa80"/>
        <path id="Trazado_917473" data-name="Trazado 917473" d="M25.316,39.541,106.236,82.5l10.119,3.267,9.791.281-.85,2.715a75.586,75.586,0,0,0,14.7,10.4l-19.831,25.428s-5.952-2.652-11.039-5.012-13.176-9.489-19.69-13.831L25.316,71.878Z" transform="translate(12.29 19.196)" fill="#e4aa80"/>
        <path id="Trazado_917474" data-name="Trazado 917474" d="M89.164,106.183l3.745,1.959c3.069,1.286,5.957.591,6.656-3.29,6.775,3.014,9.063-3.959,7.28-5.267,5.5,3.4,9.632-3.253,3.7-7.026,8.727,5,12.1-.651,7.974-5.56-2.4-2.855-14.944-9.535-14.944-9.535Z" transform="translate(43.287 37.606)" fill="#e4aa80"/>
        <path id="Trazado_917475" data-name="Trazado 917475" d="M89.9,91.3c-.159.215,1.794,1.921,4.36,3.81s4.777,3.244,4.936,3.029-1.793-1.922-4.36-3.809S90.06,91.083,89.9,91.3" transform="translate(43.641 44.312)" fill="#db896e"/>
        <path id="Trazado_917476" data-name="Trazado 917476" d="M97.432,83.619c-.149.224,1.933,1.854,4.647,3.644s5.033,3.057,5.181,2.833-1.934-1.854-4.648-3.642-5.033-3.059-5.18-2.834" transform="translate(47.297 40.582)" fill="#db896e"/>
        <path id="Trazado_917477" data-name="Trazado 917477" d="M94.523,88.111c-.147.226,1.933,1.855,4.647,3.644s5.033,3.057,5.181,2.834-1.936-1.854-4.65-3.642-5.033-3.06-5.178-2.836" transform="translate(45.885 42.763)" fill="#db896e"/>
        <path id="Trazado_917478" data-name="Trazado 917478" d="M79.17,85.233c2.2.761,3.029,3.434,2.439,4.456,2.944-4.344,9.465-1.783,6.786,3.342,3.065-2.653,7.646.851,5.34,5.866,3.879-2.341,7.242.973,5.3,4.406-4.713-2.161-8.977-4-11.621-5.982C82.591,93.7,72.97,88.558,72.97,88.558s1.711-4.883,6.2-3.324" transform="translate(35.425 41.229)" fill="#db896e"/>
        <path id="Trazado_917479" data-name="Trazado 917479" d="M77.854,94.4c.254,3.687,3.139,5.4,6.575,4.385.683,4.271,4.228,4.859,7.2,2.931-.428,5.181,4.473,5.725,7.193,1.882.422-.6.872-2.913-.034-3.936-1.9-2.148-4.636-.64-5.9-.019,2.463-3.956-1.077-8.914-4.734-5.645,2.68-5.125-3.843-7.686-6.786-3.344,1.435-3.963-3.613-7.765-7.261-3.433-3.859,4.81,1.947,8.041,3.742,7.179" transform="translate(35.349 41.409)" fill="#ffb57c"/>
        <path id="Trazado_917480" data-name="Trazado 917480" d="M83.89,91.723a8.02,8.02,0,0,0,3.381,2.787S85.451,97.757,83.4,96.5c-2.653-1.618.495-4.782.495-4.782" transform="translate(39.97 44.529)" fill="#ffcdb2"/>
        <path id="Trazado_917481" data-name="Trazado 917481" d="M88.082,95.189A8.622,8.622,0,0,0,91.1,97.848s-1.327,1.936-2.865.847c-2.267-1.6-.153-3.506-.153-3.506" transform="translate(42.326 46.212)" fill="#ffcdb2"/>
        <path id="Trazado_917482" data-name="Trazado 917482" d="M80.8,88.349a8.251,8.251,0,0,0,3.561,2.785s-1.875,3.623-4.029,2.387c-2.778-1.6.468-5.172.468-5.172" transform="translate(38.452 42.891)" fill="#ffcdb2"/>
        <path id="Trazado_917483" data-name="Trazado 917483" d="M75.678,86.184a8.264,8.264,0,0,0,3.562,2.782s-1.393,2.9-3.546,1.661c-2.776-1.594-.016-4.443-.016-4.443" transform="translate(36.147 41.84)" fill="#ffcdb2"/>
        <path id="Trazado_917484" data-name="Trazado 917484" d="M97.1,74.155l-1.662,2.08s1.936,6-.478,9.535-5.382,2.152-6.113-.98C87.413,78.647,81.737,73.9,88.359,69.9Z" transform="translate(41.37 33.935)" fill="#db896e"/>
        <path id="Trazado_917485" data-name="Trazado 917485" d="M114.111,83.379c-8.093,3.111-17.227-7.105-17.227-7.105A14.107,14.107,0,0,1,94.292,77.8c2.363,8.583-1.089,10.856-2.972,11.391s-2.344-3.249-3.893-6.971c-2.686-6.451-2.142-7.307.521-10s7.909-6.316,10.658-6.664,16.428,6.385,19.876,6.723c4.725.462,3.721,8-4.37,11.107" transform="translate(41.586 31.816)" fill="#d6986e"/>
        <path id="Trazado_917486" data-name="Trazado 917486" d="M91.4,80.691c.043,1.558-1.34,2.8-2.077,2.371s-1.634-3.546-1.7-4.39,1.049-1.377,2.123-1.456c.966-.068,1.594,1.37,1.653,3.475" transform="translate(42.538 37.485)" fill="#f7ceb7"/>
        <rect id="Rectángulo_406458" data-name="Rectángulo 406458" width="15.655" height="33.584" transform="translate(150.242 98.386) rotate(-27.769)" fill="#fff"/>
        <path id="Trazado_917487" data-name="Trazado 917487" d="M116.327,79.488a1.872,1.872,0,1,1-2.53-.784,1.875,1.875,0,0,1,2.53.784" transform="translate(54.759 38.103)" fill="#222a3f"/>
        <path id="Trazado_917488" data-name="Trazado 917488" d="M180.643,35.331V78.64l-52.878,27.714L109.988,72.592Z" transform="translate(53.396 17.152)" fill="#6d4641"/>
        <rect id="Rectángulo_406459" data-name="Rectángulo 406459" width="30.337" height="11.135" transform="matrix(0.466, -0.885, 0.885, 0.466, 93.034, 121.845)" fill="#6d4641"/>
        <path id="Trazado_917489" data-name="Trazado 917489" d="M64.407,77.817A9.789,9.789,0,1,0,74.2,68.028a9.789,9.789,0,0,0-9.789,9.789" transform="translate(31.268 33.026)" fill="#222a3f"/>
        <path id="Trazado_917490" data-name="Trazado 917490" d="M66.05,77.02A7.349,7.349,0,1,0,73.4,69.671,7.348,7.348,0,0,0,66.05,77.02" transform="translate(32.065 33.823)" fill="#29304a"/>
        <path id="Trazado_917491" data-name="Trazado 917491" d="M70.082,75.062A1.358,1.358,0,1,0,71.441,73.7a1.358,1.358,0,0,0-1.359,1.358" transform="translate(34.023 35.781)" fill="#fff"/>
        <path id="Trazado_917492" data-name="Trazado 917492" d="M68.331,77.873a.686.686,0,0,1-.156-1.353l3.641-.853,2.3-4.731a.685.685,0,1,1,1.233.6L72.907,76.56a.685.685,0,0,1-.46.368l-3.959.927A.688.688,0,0,1,68.331,77.873Z" transform="translate(33.173 34.583)" fill="#fff"/>
        <path id="Trazado_917493" data-name="Trazado 917493" d="M32.947,34.409H17.706l10.556-8.432H40.334Z" transform="translate(8.596 12.611)" fill="#723a93"/>
        <path id="Trazado_917494" data-name="Trazado 917494" d="M53.464,34.409H38.225l4.222-8.432H53.464Z" transform="translate(18.557 12.611)" fill="#723a93"/>
        <path id="Trazado_917495" data-name="Trazado 917495" d="M75.017,34.409H59.777l-3.166-8.432H68.685Z" transform="translate(27.483 12.611)" fill="#723a93"/>
        <path id="Trazado_917496" data-name="Trazado 917496" d="M43.2,34.409H27.966l7.387-8.432H47.426Z" transform="translate(13.577 12.611)" fill="#e0effc"/>
        <path id="Trazado_917497" data-name="Trazado 917497" d="M63.722,34.409H48.484V25.978H60.558Z" transform="translate(23.538 12.611)" fill="#e0effc"/>
        <path id="Trazado_917498" data-name="Trazado 917498" d="M86.312,34.409H71.072l-6.334-8.432H76.812Z" transform="translate(31.429 12.611)" fill="#e0effc"/>
        <path id="Trazado_917499" data-name="Trazado 917499" d="M25.326,43.426a7.567,7.567,0,0,0,7.62-7.511H17.706a7.567,7.567,0,0,0,7.62,7.511" transform="translate(8.596 17.436)" fill="#9167f1"/>
        <path id="Trazado_917500" data-name="Trazado 917500" d="M35.586,43.426A7.564,7.564,0,0,0,43.2,35.915H27.966a7.566,7.566,0,0,0,7.62,7.511" transform="translate(13.577 17.436)" fill="#fff"/>
        <path id="Trazado_917501" data-name="Trazado 917501" d="M45.844,43.426a7.564,7.564,0,0,0,7.619-7.511H38.224a7.567,7.567,0,0,0,7.62,7.511" transform="translate(18.557 17.436)" fill="#9167f1"/>
        <path id="Trazado_917502" data-name="Trazado 917502" d="M56.1,43.426a7.564,7.564,0,0,0,7.619-7.511H48.484A7.564,7.564,0,0,0,56.1,43.426" transform="translate(23.538 17.436)" fill="#fff"/>
        <path id="Trazado_917503" data-name="Trazado 917503" d="M66.364,43.426a7.564,7.564,0,0,0,7.619-7.511H58.742a7.566,7.566,0,0,0,7.622,7.511" transform="translate(28.518 17.436)" fill="#9167f1"/>
        <path id="Trazado_917504" data-name="Trazado 917504" d="M76.621,43.426a7.567,7.567,0,0,0,7.62-7.511H69a7.564,7.564,0,0,0,7.619,7.511" transform="translate(33.499 17.436)" fill="#fff"/>
        <rect id="Rectángulo_406460" data-name="Rectángulo 406460" width="15.238" height="6.505" transform="translate(26.303 47.021)" fill="#9167f1"/>
        <rect id="Rectángulo_406461" data-name="Rectángulo 406461" width="15.239" height="6.505" transform="translate(56.781 47.021)" fill="#9167f1"/>
        <rect id="Rectángulo_406462" data-name="Rectángulo 406462" width="15.239" height="6.505" transform="translate(87.257 47.021)" fill="#9167f1"/>
        <rect id="Rectángulo_406463" data-name="Rectángulo 406463" width="15.239" height="6.505" transform="translate(41.541 47.021)" fill="#fff"/>
        <rect id="Rectángulo_406464" data-name="Rectángulo 406464" width="15.236" height="6.505" transform="translate(72.02 47.021)" fill="#fff"/>
        <rect id="Rectángulo_406465" data-name="Rectángulo 406465" width="15.241" height="6.505" transform="translate(102.496 47.021)" fill="#fff"/>
        <path id="Trazado_917505" data-name="Trazado 917505" d="M156.951,34.409H172.19l-10.553-8.432H149.564Z" transform="translate(72.609 12.611)" fill="#723a93"/>
        <path id="Trazado_917506" data-name="Trazado 917506" d="M134.019,34.409h15.238l-4.22-8.432H134.019Z" transform="translate(65.062 12.611)" fill="#723a93"/>
        <path id="Trazado_917507" data-name="Trazado 917507" d="M113.5,34.409h15.241l3.164-8.432H119.834Z" transform="translate(55.102 12.611)" fill="#723a93"/>
        <path id="Trazado_917508" data-name="Trazado 917508" d="M145.658,34.409H160.9l-7.389-8.432H141.436Z" transform="translate(68.663 12.611)" fill="#e0effc"/>
        <path id="Trazado_917509" data-name="Trazado 917509" d="M123.761,34.409H139V25.978H126.925Z" transform="translate(60.082 12.611)" fill="#e0effc"/>
        <path id="Trazado_917510" data-name="Trazado 917510" d="M103.242,34.409h15.239l6.334-8.432H112.741Z" transform="translate(50.121 12.611)" fill="#e0effc"/>
        <path id="Trazado_917511" data-name="Trazado 917511" d="M162.156,43.426a7.566,7.566,0,0,1-7.62-7.511h15.239a7.566,7.566,0,0,1-7.619,7.511" transform="translate(75.023 17.436)" fill="#9167f1"/>
        <path id="Trazado_917512" data-name="Trazado 917512" d="M151.9,43.426a7.566,7.566,0,0,1-7.62-7.511h15.241a7.565,7.565,0,0,1-7.62,7.511" transform="translate(70.042 17.436)" fill="#fff"/>
        <path id="Trazado_917513" data-name="Trazado 917513" d="M141.638,43.426a7.567,7.567,0,0,1-7.62-7.511h15.239a7.565,7.565,0,0,1-7.619,7.511" transform="translate(65.062 17.436)" fill="#9167f1"/>
        <path id="Trazado_917514" data-name="Trazado 917514" d="M131.379,43.426a7.564,7.564,0,0,1-7.619-7.511H139a7.564,7.564,0,0,1-7.619,7.511" transform="translate(60.082 17.436)" fill="#fff"/>
        <path id="Trazado_917515" data-name="Trazado 917515" d="M121.119,43.426a7.563,7.563,0,0,1-7.617-7.511h15.239a7.566,7.566,0,0,1-7.622,7.511" transform="translate(55.102 17.436)" fill="#9167f1"/>
        <path id="Trazado_917516" data-name="Trazado 917516" d="M110.861,43.426a7.567,7.567,0,0,1-7.62-7.511h15.241a7.566,7.566,0,0,1-7.62,7.511" transform="translate(50.121 17.436)" fill="#fff"/>
        <rect id="Rectángulo_406466" data-name="Rectángulo 406466" width="15.239" height="6.505" transform="translate(229.56 47.021)" fill="#9167f1"/>
        <rect id="Rectángulo_406467" data-name="Rectángulo 406467" width="15.236" height="6.505" transform="translate(199.084 47.021)" fill="#9167f1"/>
        <rect id="Rectángulo_406468" data-name="Rectángulo 406468" width="15.239" height="6.505" transform="translate(168.607 47.021)" fill="#9167f1"/>
        <rect id="Rectángulo_406469" data-name="Rectángulo 406469" width="15.241" height="6.505" transform="translate(214.321 47.021)" fill="#fff"/>
        <rect id="Rectángulo_406470" data-name="Rectángulo 406470" width="15.238" height="6.505" transform="translate(183.845 47.021)" fill="#fff"/>
        <rect id="Rectángulo_406471" data-name="Rectángulo 406471" width="15.241" height="6.505" transform="translate(153.366 47.021)" fill="#fff"/>
        <rect id="Rectángulo_406472" data-name="Rectángulo 406472" width="51.194" height="16.72" transform="translate(47.231)" fill="#f7c037"/>
        <path id="Rectángulo_406473" data-name="Rectángulo 406473" d="M-.685-.685H47.658V14.032H-.685ZM46.287.686H.686V12.661h45.6Z" transform="translate(49.341 1.687)" fill="#f4a738"/>
        <rect id="Rectángulo_406474" data-name="Rectángulo 406474" width="51.194" height="16.72" transform="translate(173.747)" fill="#f7c037"/>
        <path id="Rectángulo_406475" data-name="Rectángulo 406475" d="M-.686-.685H47.656V14.032H-.686ZM46.285.686H.686V12.661h45.6Z" transform="translate(175.859 1.687)" fill="#f4a738"/>
        <rect id="Rectángulo_406476" data-name="Rectángulo 406476" width="47.266" height="42.011" transform="translate(30.425 138.072)" fill="#e4aa80"/>
        <rect id="Rectángulo_406477" data-name="Rectángulo 406477" width="18.095" height="42.011" transform="translate(77.692 138.072)" fill="#dd9976"/>
        <rect id="Rectángulo_406478" data-name="Rectángulo 406478" width="34.066" height="15.801" transform="translate(36.985 144.817)" fill="#eaeaea"/>
        <rect id="Rectángulo_406479" data-name="Rectángulo 406479" width="16.263" height="1.554" transform="translate(36.985 164.461)" fill="#db896e"/>
        <rect id="Rectángulo_406480" data-name="Rectángulo 406480" width="16.263" height="1.552" transform="translate(36.985 168.895)" fill="#db896e"/>
        <rect id="Rectángulo_406481" data-name="Rectángulo 406481" width="9.494" height="4.21" transform="translate(49.273 138.073)" fill="#ce1732"/>
        <rect id="Rectángulo_406482" data-name="Rectángulo 406482" width="9.494" height="4.21" transform="translate(49.273 175.872)" fill="#ce1732"/>
        <rect id="Rectángulo_406483" data-name="Rectángulo 406483" width="38.506" height="35.289" transform="translate(0 144.793)" fill="#e4aa80"/>
        <rect id="Rectángulo_406484" data-name="Rectángulo 406484" width="14.742" height="35.289" transform="translate(38.506 144.793)" fill="#dd9976"/>
        <rect id="Rectángulo_406485" data-name="Rectángulo 406485" width="27.76" height="13.273" transform="translate(5.412 150.457)" fill="#eaeaea"/>
        <rect id="Rectángulo_406486" data-name="Rectángulo 406486" width="13.252" height="1.306" transform="translate(5.412 166.96)" fill="#db896e"/>
        <rect id="Rectángulo_406487" data-name="Rectángulo 406487" width="13.252" height="1.304" transform="translate(5.412 170.684)" fill="#db896e"/>
        <rect id="Rectángulo_406488" data-name="Rectángulo 406488" width="8.387" height="3.18" transform="translate(15.355 144.799)" fill="#ce1732"/>
        <rect id="Rectángulo_406489" data-name="Rectángulo 406489" width="8.387" height="3.182" transform="translate(15.355 176.9)" fill="#ce1732"/>
        <rect id="Rectángulo_406490" data-name="Rectángulo 406490" width="28.016" height="15.419" transform="translate(44.821 122.652)" fill="#dd9976"/>
        <rect id="Rectángulo_406491" data-name="Rectángulo 406491" width="10.706" height="15.419" transform="translate(72.837 122.652)" fill="#d38a6a"/>
        <rect id="Rectángulo_406492" data-name="Rectángulo 406492" width="9.624" height="0.847" transform="translate(48.749 129.552)" fill="#cc7c60"/>
        <rect id="Rectángulo_406493" data-name="Rectángulo 406493" width="9.624" height="0.845" transform="translate(48.749 131.972)" fill="#cc7c60"/>
        <rect id="Rectángulo_406494" data-name="Rectángulo 406494" width="28.017" height="15.419" transform="translate(62.492 164.663)" fill="#dd9976"/>
        <rect id="Rectángulo_406495" data-name="Rectángulo 406495" width="10.704" height="15.419" transform="translate(90.51 164.663)" fill="#d38a6a"/>
        <rect id="Rectángulo_406496" data-name="Rectángulo 406496" width="9.626" height="0.848" transform="translate(66.421 171.563)" fill="#cc7c60"/>
        <rect id="Rectángulo_406497" data-name="Rectángulo 406497" width="9.626" height="0.845" transform="translate(66.421 173.981)" fill="#cc7c60"/>
        <path id="Rectángulo_406498" data-name="Rectángulo 406498" d="M.455,0H28.562a.455.455,0,0,1,.455.455V4.6a.456.456,0,0,1-.456.456H.455A.455.455,0,0,1,0,4.6V.455A.455.455,0,0,1,.455,0Z" transform="translate(178.869 175.023)" fill="#f7c037"/>
        <path id="Trazado_917517" data-name="Trazado 917517" d="M130.4,117.824H121.09a.677.677,0,0,0-.677.676v3.708a.675.675,0,0,0,.677.674H130.4Z" transform="translate(58.457 57.2)" fill="#f4a738"/>
        <rect id="Rectángulo_406499" data-name="Rectángulo 406499" width="0.674" height="5.058" transform="translate(190.001 175.024)" fill="#f4a738"/>
        <rect id="Rectángulo_406500" data-name="Rectángulo 406500" width="0.674" height="5.058" transform="translate(191.549 175.024)" fill="#f4a738"/>
        <rect id="Rectángulo_406501" data-name="Rectángulo 406501" width="0.676" height="5.058" transform="translate(195.693 175.024)" fill="#f4a738"/>
        <rect id="Rectángulo_406502" data-name="Rectángulo 406502" width="0.674" height="5.058" transform="translate(197.351 175.024)" fill="#f4a738"/>
        <rect id="Rectángulo_406503" data-name="Rectángulo 406503" width="0.676" height="5.058" transform="translate(198.954 175.024)" fill="#f4a738"/>
        <rect id="Rectángulo_406504" data-name="Rectángulo 406504" width="0.676" height="5.058" transform="translate(203.704 175.024)" fill="#f4a738"/>
        <path id="Rectángulo_406505" data-name="Rectángulo 406505" d="M.455,0h28.1a.456.456,0,0,1,.456.456V4.6a.456.456,0,0,1-.456.456H.455A.455.455,0,0,1,0,4.6V.455A.455.455,0,0,1,.455,0Z" transform="translate(181.186 169.967)" fill="#f7c037"/>
        <path id="Trazado_917518" data-name="Trazado 917518" d="M131.955,114.419h-9.306a.675.675,0,0,0-.677.674V118.8a.675.675,0,0,0,.677.676h9.306Z" transform="translate(59.213 55.547)" fill="#f4a738"/>
        <rect id="Rectángulo_406506" data-name="Rectángulo 406506" width="0.676" height="5.057" transform="translate(192.315 169.968)" fill="#f4a738"/>
        <rect id="Rectángulo_406507" data-name="Rectángulo 406507" width="0.674" height="5.057" transform="translate(193.864 169.968)" fill="#f4a738"/>
        <rect id="Rectángulo_406508" data-name="Rectángulo 406508" width="0.676" height="5.057" transform="translate(198.009 169.968)" fill="#f4a738"/>
        <rect id="Rectángulo_406509" data-name="Rectángulo 406509" width="0.674" height="5.057" transform="translate(199.665 169.968)" fill="#f4a738"/>
        <rect id="Rectángulo_406510" data-name="Rectángulo 406510" width="0.674" height="5.057" transform="translate(201.271 169.968)" fill="#f4a738"/>
        <rect id="Rectángulo_406511" data-name="Rectángulo 406511" width="0.674" height="5.057" transform="translate(206.02 169.968)" fill="#f4a738"/>
        <rect id="Rectángulo_406512" data-name="Rectángulo 406512" width="29.016" height="5.06" rx="0.455" transform="translate(182.025 149.918)" fill="#f7c037"/>
        <path id="Trazado_917519" data-name="Trazado 917519" d="M132.519,100.923h-9.306a.675.675,0,0,0-.676.676v3.708a.675.675,0,0,0,.676.676h9.306Z" transform="translate(59.488 48.995)" fill="#f4a738"/>
        <rect id="Rectángulo_406513" data-name="Rectángulo 406513" width="0.676" height="5.06" transform="translate(193.153 149.918)" fill="#f4a738"/>
        <rect id="Rectángulo_406514" data-name="Rectángulo 406514" width="0.674" height="5.06" transform="translate(194.702 149.918)" fill="#f4a738"/>
        <rect id="Rectángulo_406515" data-name="Rectángulo 406515" width="0.677" height="5.06" transform="translate(198.847 149.918)" fill="#f4a738"/>
        <rect id="Rectángulo_406516" data-name="Rectángulo 406516" width="0.676" height="5.06" transform="translate(200.503 149.918)" fill="#f4a738"/>
        <rect id="Rectángulo_406517" data-name="Rectángulo 406517" width="0.676" height="5.06" transform="translate(202.109 149.918)" fill="#f4a738"/>
        <rect id="Rectángulo_406518" data-name="Rectángulo 406518" width="0.676" height="5.06" transform="translate(206.856 149.918)" fill="#f4a738"/>
        <path id="Rectángulo_406519" data-name="Rectángulo 406519" d="M.456,0h28.1a.455.455,0,0,1,.455.455V4.6a.455.455,0,0,1-.455.455H.454A.454.454,0,0,1,0,4.606V.456A.456.456,0,0,1,.456,0Z" transform="translate(177.715 164.908)" fill="#f7c037"/>
        <path id="Trazado_917520" data-name="Trazado 917520" d="M129.619,111.013h-9.308a.676.676,0,0,0-.676.677v3.7a.676.676,0,0,0,.676.677h9.308Z" transform="translate(58.079 53.894)" fill="#f4a738"/>
        <rect id="Rectángulo_406520" data-name="Rectángulo 406520" width="0.676" height="5.06" transform="translate(188.845 164.907)" fill="#f4a738"/>
        <rect id="Rectángulo_406521" data-name="Rectángulo 406521" width="0.677" height="5.06" transform="translate(190.391 164.907)" fill="#f4a738"/>
        <rect id="Rectángulo_406522" data-name="Rectángulo 406522" width="0.676" height="5.06" transform="translate(194.54 164.907)" fill="#f4a738"/>
        <rect id="Rectángulo_406523" data-name="Rectángulo 406523" width="0.676" height="5.06" transform="translate(196.194 164.907)" fill="#f4a738"/>
        <rect id="Rectángulo_406524" data-name="Rectángulo 406524" width="0.676" height="5.06" transform="translate(197.801 164.907)" fill="#f4a738"/>
        <rect id="Rectángulo_406525" data-name="Rectángulo 406525" width="0.676" height="5.06" transform="translate(202.549 164.907)" fill="#f4a738"/>
        <path id="Rectángulo_406526" data-name="Rectángulo 406526" d="M.455,0H28.561a.455.455,0,0,1,.455.455V4.6a.455.455,0,0,1-.455.455H.454A.454.454,0,0,1,0,4.6V.455A.455.455,0,0,1,.455,0Z" transform="translate(177.715 144.995)" fill="#f7c037"/>
        <path id="Trazado_917521" data-name="Trazado 917521" d="M129.619,97.609h-9.308a.675.675,0,0,0-.676.676v3.7a.675.675,0,0,0,.676.676h9.308Z" transform="translate(58.079 47.386)" fill="#f4a738"/>
        <rect id="Rectángulo_406527" data-name="Rectángulo 406527" width="0.676" height="5.057" transform="translate(188.845 144.995)" fill="#f4a738"/>
        <rect id="Rectángulo_406528" data-name="Rectángulo 406528" width="0.677" height="5.057" transform="translate(190.391 144.995)" fill="#f4a738"/>
        <rect id="Rectángulo_406529" data-name="Rectángulo 406529" width="0.676" height="5.057" transform="translate(194.54 144.995)" fill="#f4a738"/>
        <rect id="Rectángulo_406530" data-name="Rectángulo 406530" width="0.676" height="5.057" transform="translate(196.194 144.995)" fill="#f4a738"/>
        <rect id="Rectángulo_406531" data-name="Rectángulo 406531" width="0.676" height="5.057" transform="translate(197.801 144.995)" fill="#f4a738"/>
        <rect id="Rectángulo_406532" data-name="Rectángulo 406532" width="0.676" height="5.057" transform="translate(202.549 144.995)" fill="#f4a738"/>
        <rect id="Rectángulo_406533" data-name="Rectángulo 406533" width="29.016" height="5.058" rx="0.455" transform="translate(180.032 159.849)" fill="#f7c037"/>
        <path id="Trazado_917522" data-name="Trazado 917522" d="M131.177,107.609h-9.306a.675.675,0,0,0-.676.676v3.706a.675.675,0,0,0,.676.676h9.306Z" transform="translate(58.837 52.241)" fill="#f4a738"/>
        <rect id="Rectángulo_406534" data-name="Rectángulo 406534" width="0.676" height="5.058" transform="translate(191.159 159.849)" fill="#f4a738"/>
        <rect id="Rectángulo_406535" data-name="Rectángulo 406535" width="0.674" height="5.058" transform="translate(192.709 159.849)" fill="#f4a738"/>
        <rect id="Rectángulo_406536" data-name="Rectángulo 406536" width="0.676" height="5.058" transform="translate(196.853 159.849)" fill="#f4a738"/>
        <rect id="Rectángulo_406537" data-name="Rectángulo 406537" width="0.676" height="5.058" transform="translate(198.51 159.849)" fill="#f4a738"/>
        <rect id="Rectángulo_406538" data-name="Rectángulo 406538" width="0.676" height="5.058" transform="translate(200.115 159.849)" fill="#f4a738"/>
        <rect id="Rectángulo_406539" data-name="Rectángulo 406539" width="0.676" height="5.058" transform="translate(204.864 159.849)" fill="#f4a738"/>
        <path id="Rectángulo_406540" data-name="Rectángulo 406540" d="M.456,0h28.1a.455.455,0,0,1,.455.455V4.6a.455.455,0,0,1-.455.455H.455A.455.455,0,0,1,0,4.6V.456A.456.456,0,0,1,.456,0Z" transform="translate(180.032 154.792)" fill="#f7c037"/>
        <path id="Trazado_917523" data-name="Trazado 917523" d="M131.177,104.2h-9.306a.675.675,0,0,0-.676.676v3.7a.677.677,0,0,0,.676.677h9.306Z" transform="translate(58.837 50.588)" fill="#f4a738"/>
        <rect id="Rectángulo_406541" data-name="Rectángulo 406541" width="0.676" height="5.058" transform="translate(191.159 154.792)" fill="#f4a738"/>
        <rect id="Rectángulo_406542" data-name="Rectángulo 406542" width="0.674" height="5.058" transform="translate(192.709 154.792)" fill="#f4a738"/>
        <rect id="Rectángulo_406543" data-name="Rectángulo 406543" width="0.676" height="5.058" transform="translate(196.853 154.792)" fill="#f4a738"/>
        <rect id="Rectángulo_406544" data-name="Rectángulo 406544" width="0.676" height="5.058" transform="translate(198.51 154.792)" fill="#f4a738"/>
        <rect id="Rectángulo_406545" data-name="Rectángulo 406545" width="0.676" height="5.058" transform="translate(200.115 154.792)" fill="#f4a738"/>
        <rect id="Rectángulo_406546" data-name="Rectángulo 406546" width="0.676" height="5.058" transform="translate(204.864 154.792)" fill="#f4a738"/>
        <path id="Trazado_917524" data-name="Trazado 917524" d="M140.051,116.224A14.447,14.447,0,1,1,125.6,101.778a14.447,14.447,0,0,1,14.446,14.446" transform="translate(53.964 49.41)" fill="#f7c037"/>
        <path id="Trazado_917525" data-name="Trazado 917525" d="M124.329,126.485a11.537,11.537,0,1,1,8.158-3.379A11.465,11.465,0,0,1,124.329,126.485Zm0-21.086a9.549,9.549,0,1,0,9.55,9.55A9.561,9.561,0,0,0,124.329,105.4Z" transform="translate(55.239 50.686)" fill="#f4a738"/>
        <path id="Trazado_917526" data-name="Trazado 917526" d="M126.286,115.483c0,1.7-1.291,2.634-2.966,2.874v2.1h-1.982V118.33a7.612,7.612,0,0,1-3.379-1.4l1.037-2.1a6.368,6.368,0,0,0,3.473,1.423c.585,0,.957-.2.957-.625,0-1.41-4.865-.518-4.865-3.8,0-1.5,1.061-2.539,2.778-2.846v-2.05h1.982v2.011a7.143,7.143,0,0,1,2.992,1.023l-1.025,2.127a7.74,7.74,0,0,0-3.1-1.037c-.465,0-.771.16-.771.505,0,1.37,4.869.559,4.869,3.923" transform="translate(57.265 51.911)" fill="#fff"/>
        <path id="Trazado_917527" data-name="Trazado 917527" d="M151.592,92.533s-6.444-7.184-3.727-10.323c1.643-1.9,3.259,1.982,4.969-.661s4.193-5.449,7.141-1.982,4.5,3.3,6.521,1.652,4.348.991,0,7.43-10.557,8.92-14.9,3.883" transform="translate(71.46 37.844)" fill="#6d4641"/>
        <path id="Trazado_917528" data-name="Trazado 917528" d="M148.992,81.406c1.288,2.35,3.757,6.325,4.222,3.3a28.023,28.023,0,0,0,.235-5.667,15.1,15.1,0,0,0-1.485,1.983c-1.018,1.566-2,.838-2.971.383" transform="translate(72.331 38.372)" fill="#603936"/>
        <path id="Trazado_917529" data-name="Trazado 917529" d="M155.895,79.146c-.1-.116-.2-.224-.293-.325.071,2.8.374,7.372,1.6,7.083,1.023-.241,2.928-2.415,4.455-4.55-1.682,1.078-3.192.817-5.765-2.207" transform="translate(75.54 38.265)" fill="#603936"/>
        <path id="Trazado_917530" data-name="Trazado 917530" d="M183.592,106.525c-7.031-16.1-21.734-15.8-21.734-15.8s-14.532-.171-21.728,15.8c-5.753,12.759-3.809,29.311,21.728,29.51,25.543-.2,27.316-16.717,21.734-29.51" transform="translate(66.73 44.047)" fill="#6d4641"/>
        <path id="Trazado_917531" data-name="Trazado 917531" d="M161.856,121.69c-16.111-.128-22.827-6.765-24.148-14.849-1.545,10.715,3.831,21.224,24.148,21.382,20.342-.157,25.6-10.667,24.084-21.4-1.3,8.1-7.946,14.74-24.084,14.868" transform="translate(66.733 51.859)" fill="#603936"/>
        <path id="Trazado_917532" data-name="Trazado 917532" d="M162.133,89.462c0,.772-.438,1.4-.977,1.4H150.64c-.541,0-.979-.625-.979-1.4s.438-1.4.979-1.4h10.516c.539,0,.977.625.977,1.4" transform="translate(72.656 42.754)" fill="#f7c037"/>
        <path id="Trazado_917533" data-name="Trazado 917533" d="M162.133,91.342c0,.772-.438,1.4-.977,1.4H150.64c-.541,0-.979-.624-.979-1.4s.438-1.395.979-1.395h10.516c.539,0,.977.624.977,1.395" transform="translate(72.656 43.667)" fill="#f4a738"/>
        <path id="Trazado_917534" data-name="Trazado 917534" d="M154.524,100.532a2.328,2.328,0,0,1-2.274-2.823l1.6-7.32a2.325,2.325,0,0,1,3.935-1.128l5.391,5.514a2.326,2.326,0,1,1-3.326,3.251l-2.378-2.432-.681,3.11A2.326,2.326,0,0,1,154.524,100.532Z" transform="translate(75.016 44.122)" fill="#f4a738"/>
        <path id="Trazado_917535" data-name="Trazado 917535" d="M166.682,107.677a9.5,9.5,0,1,1-9.5-9.5,9.5,9.5,0,0,1,9.5,9.5" transform="translate(71.7 47.665)" fill="#f7c037"/>
        <path id="Trazado_917536" data-name="Trazado 917536" d="M162.126,110.539c0,2.551-1.934,3.947-4.446,4.308V118h-2.971v-3.191a11.4,11.4,0,0,1-5.064-2.093l1.554-3.151A9.55,9.55,0,0,0,156.4,111.7c.878,0,1.435-.3,1.435-.937,0-2.112-7.3-.777-7.3-5.7,0-2.253,1.6-3.806,4.167-4.266v-3.07h2.971v3.011a10.767,10.767,0,0,1,4.485,1.534l-1.535,3.189a11.617,11.617,0,0,0-4.645-1.555c-.7,0-1.154.239-1.154.756,0,2.056,7.3.841,7.3,5.882" transform="translate(72.648 47.441)" fill="#6d4641"/>
        <path id="Rectángulo_406547" data-name="Rectángulo 406547" d="M.454,0H28.56a.456.456,0,0,1,.456.456V4.6a.456.456,0,0,1-.456.456H.454A.454.454,0,0,1,0,4.606V.454A.454.454,0,0,1,.454,0Z" transform="translate(239.77 175.023)" fill="#f7c037"/>
        <path id="Trazado_917537" data-name="Trazado 917537" d="M171.394,117.824h-9.306a.677.677,0,0,0-.677.676v3.708a.675.675,0,0,0,.677.674h9.306Z" transform="translate(78.36 57.2)" fill="#f4a738"/>
        <rect id="Rectángulo_406548" data-name="Rectángulo 406548" width="0.676" height="5.058" transform="translate(250.899 175.024)" fill="#f4a738"/>
        <rect id="Rectángulo_406549" data-name="Rectángulo 406549" width="0.676" height="5.058" transform="translate(252.447 175.024)" fill="#f4a738"/>
        <rect id="Rectángulo_406550" data-name="Rectángulo 406550" width="0.676" height="5.058" transform="translate(256.594 175.024)" fill="#f4a738"/>
        <rect id="Rectángulo_406551" data-name="Rectángulo 406551" width="0.676" height="5.058" transform="translate(258.249 175.024)" fill="#f4a738"/>
        <rect id="Rectángulo_406552" data-name="Rectángulo 406552" width="0.676" height="5.058" transform="translate(259.854 175.024)" fill="#f4a738"/>
        <rect id="Rectángulo_406553" data-name="Rectángulo 406553" width="0.676" height="5.058" transform="translate(264.604 175.024)" fill="#f4a738"/>
        <path id="Rectángulo_406554" data-name="Rectángulo 406554" d="M.455,0H28.561a.455.455,0,0,1,.455.455V4.6a.454.454,0,0,1-.454.454H.455A.455.455,0,0,1,0,4.6V.455A.455.455,0,0,1,.455,0Z" transform="translate(242.086 169.967)" fill="#f7c037"/>
        <path id="Trazado_917538" data-name="Trazado 917538" d="M172.951,114.419h-9.306a.673.673,0,0,0-.674.674V118.8a.673.673,0,0,0,.674.676h9.306Z" transform="translate(79.117 55.547)" fill="#f4a738"/>
        <rect id="Rectángulo_406555" data-name="Rectángulo 406555" width="0.677" height="5.057" transform="translate(253.214 169.968)" fill="#f4a738"/>
        <rect id="Rectángulo_406556" data-name="Rectángulo 406556" width="0.674" height="5.057" transform="translate(254.764 169.968)" fill="#f4a738"/>
        <rect id="Rectángulo_406557" data-name="Rectángulo 406557" width="0.674" height="5.057" transform="translate(258.91 169.968)" fill="#f4a738"/>
        <rect id="Rectángulo_406558" data-name="Rectángulo 406558" width="0.676" height="5.057" transform="translate(260.564 169.968)" fill="#f4a738"/>
        <rect id="Rectángulo_406559" data-name="Rectángulo 406559" width="0.676" height="5.057" transform="translate(262.169 169.968)" fill="#f4a738"/>
        <rect id="Rectángulo_406560" data-name="Rectángulo 406560" width="0.677" height="5.057" transform="translate(266.918 169.968)" fill="#f4a738"/>
        <path id="Rectángulo_406561" data-name="Rectángulo 406561" d="M.456,0h28.1a.455.455,0,0,1,.455.455V4.6a.455.455,0,0,1-.455.455H.455A.455.455,0,0,1,0,4.6V.456A.456.456,0,0,1,.456,0Z" transform="translate(238.616 164.908)" fill="#f7c037"/>
        <path id="Trazado_917539" data-name="Trazado 917539" d="M170.617,111.013h-9.308a.677.677,0,0,0-.676.677v3.7a.677.677,0,0,0,.676.677h9.308Z" transform="translate(77.983 53.894)" fill="#f4a738"/>
        <rect id="Rectángulo_406562" data-name="Rectángulo 406562" width="0.677" height="5.06" transform="translate(249.742 164.907)" fill="#f4a738"/>
        <rect id="Rectángulo_406563" data-name="Rectángulo 406563" width="0.676" height="5.06" transform="translate(251.293 164.907)" fill="#f4a738"/>
        <rect id="Rectángulo_406564" data-name="Rectángulo 406564" width="0.676" height="5.06" transform="translate(255.439 164.907)" fill="#f4a738"/>
        <rect id="Rectángulo_406565" data-name="Rectángulo 406565" width="0.676" height="5.06" transform="translate(257.095 164.907)" fill="#f4a738"/>
        <rect id="Rectángulo_406566" data-name="Rectángulo 406566" width="0.676" height="5.06" transform="translate(258.699 164.907)" fill="#f4a738"/>
        <rect id="Rectángulo_406567" data-name="Rectángulo 406567" width="0.676" height="5.06" transform="translate(263.45 164.907)" fill="#f4a738"/>
        <path id="Rectángulo_406568" data-name="Rectángulo 406568" d="M.455,0H28.561a.456.456,0,0,1,.456.456V4.6a.455.455,0,0,1-.455.455H.456A.456.456,0,0,1,0,4.6V.455A.455.455,0,0,1,.455,0Z" transform="translate(240.93 159.849)" fill="#f7c037"/>
        <path id="Trazado_917540" data-name="Trazado 917540" d="M172.176,107.609h-9.309a.676.676,0,0,0-.676.676v3.706a.675.675,0,0,0,.676.676h9.309Z" transform="translate(78.739 52.241)" fill="#f4a738"/>
        <rect id="Rectángulo_406569" data-name="Rectángulo 406569" width="0.676" height="5.058" transform="translate(252.059 159.849)" fill="#f4a738"/>
        <rect id="Rectángulo_406570" data-name="Rectángulo 406570" width="0.676" height="5.058" transform="translate(253.607 159.849)" fill="#f4a738"/>
        <rect id="Rectángulo_406571" data-name="Rectángulo 406571" width="0.676" height="5.058" transform="translate(257.755 159.849)" fill="#f4a738"/>
        <rect id="Rectángulo_406572" data-name="Rectángulo 406572" width="0.674" height="5.058" transform="translate(259.412 159.849)" fill="#f4a738"/>
        <rect id="Rectángulo_406573" data-name="Rectángulo 406573" width="0.676" height="5.058" transform="translate(261.015 159.849)" fill="#f4a738"/>
        <rect id="Rectángulo_406574" data-name="Rectángulo 406574" width="0.674" height="5.058" transform="translate(265.766 159.849)" fill="#f4a738"/>
        <path id="Rectángulo_406575" data-name="Rectángulo 406575" d="M.456,0H28.561a.456.456,0,0,1,.456.456V4.6a.455.455,0,0,1-.455.455H.456A.456.456,0,0,1,0,4.6V.456A.456.456,0,0,1,.456,0Z" transform="translate(240.93 154.792)" fill="#f7c037"/>
        <path id="Trazado_917541" data-name="Trazado 917541" d="M172.176,104.2h-9.309a.675.675,0,0,0-.676.676v3.7a.678.678,0,0,0,.676.677h9.309Z" transform="translate(78.739 50.588)" fill="#f4a738"/>
        <rect id="Rectángulo_406576" data-name="Rectángulo 406576" width="0.676" height="5.058" transform="translate(252.059 154.792)" fill="#f4a738"/>
        <rect id="Rectángulo_406577" data-name="Rectángulo 406577" width="0.676" height="5.058" transform="translate(253.607 154.792)" fill="#f4a738"/>
        <rect id="Rectángulo_406578" data-name="Rectángulo 406578" width="0.676" height="5.058" transform="translate(257.755 154.792)" fill="#f4a738"/>
        <rect id="Rectángulo_406579" data-name="Rectángulo 406579" width="0.674" height="5.058" transform="translate(259.412 154.792)" fill="#f4a738"/>
        <rect id="Rectángulo_406580" data-name="Rectángulo 406580" width="0.676" height="5.058" transform="translate(261.015 154.792)" fill="#f4a738"/>
        <rect id="Rectángulo_406581" data-name="Rectángulo 406581" width="0.674" height="5.058" transform="translate(265.766 154.792)" fill="#f4a738"/>
      </g>
    </g>
  </g>
</svg>
