<svg id="Statistic" xmlns="http://www.w3.org/2000/svg" width="96.667" height="96.667" viewBox="0 0 96.667 96.667">
  <path id="Trazado_917549" data-name="Trazado 917549" d="M88.611,0H8.056A8.056,8.056,0,0,0,0,8.056V88.611a8.056,8.056,0,0,0,8.056,8.056H88.611a8.056,8.056,0,0,0,8.056-8.056V8.056A8.056,8.056,0,0,0,88.611,0ZM4.028,8.056A4.028,4.028,0,0,1,8.056,4.028H88.611a4.028,4.028,0,0,1,4.028,4.028v8.056H4.028ZM14.1,92.639V74.514h8.056V92.639Zm20.139,0V64.444h8.056V92.639Zm20.139,0V72.5H62.43V92.639Zm20.139,0V56.389h8.056v36.25Zm18.125-4.028a4.028,4.028,0,0,1-4.028,4.028H86.6V54.375a2.014,2.014,0,0,0-2.014-2.014H72.5a2.014,2.014,0,0,0-2.014,2.014V92.639H66.458V70.486a2.014,2.014,0,0,0-2.014-2.014H52.361a2.014,2.014,0,0,0-2.014,2.014V92.639H46.319V62.43a2.014,2.014,0,0,0-2.014-2.014H32.222a2.014,2.014,0,0,0-2.014,2.014V92.639H26.181V72.5a2.014,2.014,0,0,0-2.014-2.014H12.083A2.014,2.014,0,0,0,10.069,72.5V92.639H8.056a4.028,4.028,0,0,1-4.028-4.028V20.139H92.639Z" fill="#9167f1"/>
  <path id="Trazado_917550" data-name="Trazado 917550" d="M12.054,46.262A6.042,6.042,0,0,0,18.1,39.5l10.069-5.015a6.042,6.042,0,0,0,8.539-.3l9.586,3.786a6.042,6.042,0,1,0,11.58-2.014l14.6-13.332v3.5a2.014,2.014,0,0,0,4.028,0c0-11.942,1.712-10.069-10.069-10.069a2.014,2.014,0,0,0,0,4.028h2.84L55.172,32.91a5.9,5.9,0,0,0-7.351,1.329c-10.794-4.33-9.586-3.726-9.586-4.088a6.042,6.042,0,1,0-12.083,0c0,1.067,1.631,0-9.908,5.74a6.042,6.042,0,1,0-4.189,10.372ZM52.332,36.193a2.014,2.014,0,1,1-2.014,2.014A2.014,2.014,0,0,1,52.332,36.193ZM34.046,30.957a2.014,2.014,0,1,1-.416-2.2,2.014,2.014,0,0,1,.416,2.2Zm-21.992,7.25A2.014,2.014,0,1,1,10.04,40.22,2.014,2.014,0,0,1,12.054,38.206Z" transform="translate(6.071 16.168)" fill="#9167f1"/>
  <path id="Trazado_917551" data-name="Trazado 917551" d="M5,6.014A2.014,2.014,0,1,0,7.014,4,2.014,2.014,0,0,0,5,6.014Z" transform="translate(5.069 4.056)" fill="#9167f1"/>
  <path id="Trazado_917552" data-name="Trazado 917552" d="M12.448,4.588a2.022,2.022,0,1,0,0,2.86,2.022,2.022,0,0,0,0-2.86Z" transform="translate(9.121 4.051)" fill="#9167f1"/>
  <path id="Trazado_917553" data-name="Trazado 917553" d="M13.584,4.59a2.014,2.014,0,1,0,2.2-.442A2.014,2.014,0,0,0,13.584,4.59Z" transform="translate(13.181 4.05)" fill="#9167f1"/>
</svg>
